<?xml version="1.0" encoding="utf-8"?>
<!-- Generator: Adobe Illustrator 23.0.1, SVG Export Plug-In . SVG Version: 6.00 Build 0)  -->
<svg version="1.1" id="Layer_1" xmlns="http://www.w3.org/2000/svg" xmlns:xlink="http://www.w3.org/1999/xlink" x="0px" y="0px"
	 viewBox="0 0 1290.1 1435.8" style="enable-background:new 0 0 1290.1 1435.8;" xml:space="preserve">
<style type="text/css">
	.st0{fill:none;}
	.st1{fill:#FFFFFF;}
	.st2{fill:#F29221;}
	.st3{fill:none;stroke:#FFFFFF;stroke-miterlimit:10;}
	.st4{fill:#A51E22;}
	.st5{fill:#0D0D0D;}
	.st6{fill:none;stroke:#000000;stroke-miterlimit:10;}
	.st7{fill:#447786;}
	.st8{fill:#D8942D;}
	.st9{fill:#ED5923;}
	.st10{fill:#4A4747;}
	.st11{display:none;opacity:0.34;fill:url(#KEEN_RABBITS);}
	.st12{display:none;opacity:0.1;fill:url(#KEEN_RABBITS);}
	.st13{display:none;opacity:0.11;fill:url(#KEEN_RABBITS);}
</style>
<pattern  x="2001.4" y="896" width="463.1" height="722.7" patternUnits="userSpaceOnUse" id="KEEN_RABBITS" viewBox="231.6 -903.4 463.1 722.7" style="overflow:visible;">
	<g>
		<rect x="231.6" y="-903.4" class="st0" width="463.1" height="722.7"/>
		<text transform="matrix(0.8074 -0.59 0.59 0.8074 490.8183 -11.3023)" style="font-family:'MyriadPro-Regular'; font-size:56px;">KEEN RABBITS PVT LTD</text>
		<text transform="matrix(0.8074 -0.59 0.59 0.8074 27.6909 -11.3023)" style="font-family:'MyriadPro-Regular'; font-size:56px;">KEEN RABBITS PVT LTD</text>
		
			<text transform="matrix(0.8074 -0.59 0.59 0.8074 259.2543 -372.6568)" style="font-family:'MyriadPro-Regular'; font-size:56px;">KEEN RABBITS PVT LTD</text>
		
			<text transform="matrix(0.8074 -0.59 0.59 0.8074 490.8183 -734.0123)" style="font-family:'MyriadPro-Regular'; font-size:56px;">KEEN RABBITS PVT LTD</text>
		<text transform="matrix(0.8074 -0.59 0.59 0.8074 27.6909 -734.0123)" style="font-family:'MyriadPro-Regular'; font-size:56px;">KEEN RABBITS PVT LTD</text>
	</g>
</pattern>
<g>
	<g>
		<g>
			<g>
				<path class="st7" d="M218.1,58.7h258.3v829.9H218.1V58.7z"/>
			</g>
		</g>
		<g>
			<g>
				<path class="st8" d="M511.4,102.9h258.3v785.7H511.4V102.9z"/>
			</g>
		</g>
		<g>
			<g>
				<path class="st9" d="M803.6,58.7h258.3v829.9H803.6V58.7z"/>
			</g>
		</g>
	</g>
	<path class="st1" d="M646.6,541.1c-27.5,0-55.1-0.3-82.6,0.2c-7.1,0.1-10.5-1.1-11.4-9.2c-6.1-53.5-12.8-106.9-19.3-160.3
		c-1.5-12.7-3.3-25.4-4.5-38.2c-1.8-19.4,5.3-29.3,24.3-32.7c47.1-8.4,94.6-8.3,142.1-5.4c15,0.9,29.9,3.3,44.8,5.6
		c20.5,3.1,29.2,14,26.6,34.2c-8.3,65-17,130-25.2,195c-1.1,8.7-3.9,11.5-13.2,11.2C701,540.5,673.8,541.1,646.6,541.1z"/>
	<path class="st1" d="M641,558.2c51.7,0,103.5-0.2,155.2,0.2c8.8,0.1,11.2-2.3,11.8-11.2c1.6-23.3,4.4-46.6,7.4-69.7
		c0.8-6.2-0.7-8.1-6.7-8.1c-11.3,0-22.7-0.6-34-0.6c-12.3,0.1-10.1-8.7-10-15.9c0.1-8,3.7-13.2,12.7-11.1c21.1,4.9,42.5,5.8,64,5.9
		c6.5,0,12.5,1.2,13.6,8.8c1,7.3-3.1,11.4-10.2,12.1c-4.6,0.5-5.1,3.3-5.6,6.9c-4.9,39.6-12.2,78.9-15.9,118.8
		c-1.3,14.2-5,27.6-18.9,35.2c-4.8,2.6-4.1,6.6-3.4,10.7c5.5,32.7,11,65.3,16.4,98c0.8,4.8,4.8,10.3-4.3,12
		c-7.3,1.3-11.1-0.4-13.1-8.1c-7.6-30.2-16.3-60.1-23.4-90.3c-2.2-9.4-5.9-11.7-15-11.4c-21.4,0.8-21.2,0.3-18.1,21.7
		c2.1,14.9,3.8,29.9,5.4,44.9c0.5,4.4,3.5,9.9-4.7,11.2c-7.5,1.2-10.1-2.5-11.3-8.9c-3.8-20.7-7.9-41.3-11.3-62.1
		c-0.9-5.3-2.5-6.8-7.8-6.8c-46.8,0.2-93.7,0.3-140.5,0c-7-0.1-7,4.3-7.8,8.4c-4,19.5-7.8,39.1-11.7,58.6c-0.3,1.5-0.3,3-0.7,4.5
		c-1.3,5.5-5.1,6.6-10.3,6.3c-6.6-0.5-5.6-4.9-5.1-8.9c2.4-20.2,4.6-40.4,7.4-60.6c0.9-6.3,0.1-8.4-6.9-8.4
		c-26-0.1-26.2-0.5-33.1,24.5c-6.6,23.5-12.8,47.1-19.2,70.6c-0.8,2.9-1.7,5.8-2.5,8.6c-2,6.7-7.3,6.9-12.7,5.9
		c-6.6-1.2-5.2-6-4.4-10.6c5.8-33.4,11.5-66.8,17.4-100.1c0.7-3.9,1.9-7-2.7-9.4c-14.5-7.5-17.9-21.5-19.8-36
		c-4.9-38.5-9.4-77-14.3-115.5c-0.5-4,0.3-9.2-6.6-9.9c-6.9-0.7-9.4-5.9-8.7-12.2c0.7-6.3,5.4-8.9,11.2-9c9.1-0.2,18.1,0.5,27.2,0.1
		c14.3-0.7,28.6-2,42.5-5.6c10.1-2.6,12.5,3.2,13.1,11.5c0.6,8.1,1.1,15.5-10.4,15.5c-12.8,0-25.7,0.6-38.5,0.5
		c-5.2-0.1-7.5,1-6.9,6.8c2.5,25.5,4.8,51.1,6.9,76.6c0.7,7.8,6.3,5,10.1,5c51.4,0.2,102.7,0.1,154.1,0.1
		C641,558,641,558.1,641,558.2z"/>
	<path class="st1" d="M823.9,91.3c2.8,12.8,4.6,25.7,5.5,38.7c-35.5-10.6-71.8-12-108.5-8.5c-2.6,0.3-4.3-0.2-5.8-2.2
		c7.6-31,24.4-54.5,53.2-70c6.6-3.6,13.7-8.3,20.4-12.8c2.4,2.8,7.3,6,7.3,7.6c-0.2,17.4,15.4,18.2,25.3,26.2
		c-0.8-27.7-9.9-36.6-32.9-33.7c8.4-7.1,17.8-6.3,26.4,2.3c7,7.1,10.7,15.8,10.2,25.5c-0.4,7,2.3,11.2,7.4,15.2
		c28.5,22.3,56.7,44.9,85.4,66.9c5.4,4.1,3.3,8.8,3.3,13.2c0.2,100.1,0.2,200.1,0.2,300.2c0,73.2-0.1,146.5-0.2,219.7
		c0,4.9,0.6,9.8,0.3,14.7c-0.4,5.9,1.9,8,7.8,8c7.9,0,15.6,1.6,23.3,3.9c2.6,0.8,5.6,1.3,5.6,4.3c0,3.1-3.5,3.9-5.8,4.6
		c-9.9,2.9-20.1,3.2-30.3,3.3c-15.5,0.1-31,0.7-46.2-2.9c-3-0.7-7.3-1.2-7.1-5.7c0.2-4,4.5-3.9,7-4.5c8-2,16.2-3.9,24.6-3.1
		c7.6,0.7,9.2-2.4,9.1-9.6c-0.2-107.2-0.2-214.5-0.2-321.7c0-68,0-135.9,0.3-203.9c0-8.2-1.7-13.8-8.7-18.9
		c-25.5-18.6-48-41.1-74.5-58.6c-0.9-0.3-1.8-0.7-2.7-1C823.8,89.4,823.9,90.3,823.9,91.3z"/>
	<path class="st2" d="M715.1,119.3c1.5,1.9,3.2,2.4,5.8,2.2c36.6-3.5,72.9-2.1,108.5,8.5c-1,5.8-5.8,5.9-10,6.4
		c-31.7,3.4-63.1,0.8-94.2-6.2C719.7,128.8,713.9,127.2,715.1,119.3z"/>
	<g>
		<path class="st1" d="M486.9,1049.5c-29.2-53.2-99.4-64.3-141.1-22.2c-4.6,4.6-8.3,10.1-13.6,16.6V933.8c0-24.2,0-23.7-24.7-24.7
			c-10.1-0.4-12.4,2.3-12.4,12.2c0.4,91.7,0.1,183.5,0.1,275.3c0,26.4,0,26.2,26.6,24.4c5.7-0.4,8-1.9,7.7-8
			c-0.5-9.6-0.1-19.3-0.1-32.3c9.2,13.1,15.9,23.9,26.4,31.4c35.5,25.1,91.3,15.5,120-20.7C505.9,1153.4,510.6,1092.8,486.9,1049.5z
			 M449.3,1166.2c-22.9,45.1-80.6,40.8-102.9,4.6c-22-35.6-22.4-74.2-2.4-110.8c22.3-40.9,80.4-40.4,104.2-0.2
			c8.8,14.9,12.8,31.6,12.8,54.2C461.4,1132.4,457.6,1149.8,449.3,1166.2z"/>
		<path class="st1" d="M97.7,1121.1c23.4,0.2,46.8,0.1,70.2,0.1v-0.1c23.4,0,46.8-0.3,70.2,0.2c8.2,0.2,10.7-2.5,9.9-10.3
			c-0.9-7.8-0.7-15.8-1.6-23.7c-5.1-42.2-30.9-73.3-68-82.4c-42.3-10.4-83.4,5.6-107.5,41.2c-11.2,16.7-16.7,35.1-18.7,54.9
			c-6.3,58.9,21.8,116.5,90.5,124.2c38.1,4.3,71.9-5.6,94.9-39.3c2-3,8.2-8.3,0.8-10.6c-6.8-2.1-12.1-16-21.5-4.1
			c-8.1,10.2-17.6,19.2-30.1,23c-49.3,14.9-91.1-11.2-97.3-65.3C88.5,1121.8,91.8,1121,97.7,1121.1z M91.4,1085.6
			c7.8-41.9,41.2-65.1,79-54.4c22.5,6.4,41.9,35.8,39.2,58.7c-0.7,6.6-5,4.4-8.2,4.5c-17.3,0.2-34.6,0.1-52,0.1c0,0,0,0,0,0
			c-16.9,0-33.9-0.3-50.8,0.2C91,1094.9,90.1,1092.7,91.4,1085.6z"/>
		<path class="st1" d="M643.3,1002c63,0.1,107.6,46.6,107.4,111.8c-0.2,64.2-45.6,111.9-106.7,112c-63.2,0.1-108.4-46.3-108.1-110.9
			C536.2,1048.2,580.3,1001.9,643.3,1002z M710.2,1110.1c0-18.1-4.1-34.6-12.9-49.9c-24.2-41.9-83-43.1-107-1.2
			c-20.2,35.2-19.4,72.4-0.9,108.2c11.1,21.5,30.4,32.1,54.8,31.7c24.8-0.4,42.8-12.2,54.4-34.3
			C707,1148.5,710.5,1131.4,710.2,1110.1z"/>
		<path class="st1" d="M838.3,1045.7c11.5-21,27.8-36.2,50.9-41.2c48.6-10.5,93.7,7.4,96.8,75.4c2,44.4,0.3,89,0.5,133.5
			c0,5.2-1.4,7.1-6.9,7.6c-31.8,3-31.7,3.2-31.6-28.6c0.1-35.1,0.3-70.2-0.1-105.3c-0.3-29.9-15.5-49.9-39.7-53.7
			c-36-5.6-66,18.5-68.8,56c-2.9,39.2-1.3,78.4-1,117.7c0.1,11.6-3.2,14.4-14.4,14c-23.3-0.8-23.4-0.1-23.4-23.2
			c0-60,0.2-120-0.1-180c0-8,2.2-10,10-9.9c25.4,0.3,25.4,0,25.1,25.3C835.7,1037.2,834.5,1041.4,838.3,1045.7z"/>
		<path class="st1" d="M1228.8,1008.2c-11.7,28.6-22.7,55.7-33.8,82.7c-22.5,54.5-45.1,109-67.5,163.5c-3.9,9.5-9.1,18.2-15.1,26.3
			c-14.6,19.5-34.5,25.4-58,22.7c-3.9-0.5-5.3-1.9-5.1-5.6c0.4-6.8,0.9-13.6,0.8-20.4c-0.1-4.7,2.5-4.8,5.8-4.2
			c23.9,4.5,36.6-8.4,45-28.5c3.2-7.6,6.4-15.3,10.1-22.7c2.2-4.4,0.6-7.7-1-11.7c-26.6-63.7-52.8-127.6-79.6-191.2
			c-4-9.6-2.7-12.4,7.8-11.3c9.7,1,21.9-2.6,28.6,2.1c6.6,4.7,7.7,17.2,11.2,26.3c17.7,45.9,35.4,91.8,53.6,139.2
			c4.9-13.3,9.5-25.8,14.1-38.3c15-40.5,30.1-80.9,44.7-121.5c2.2-6.2,5-8.1,11.3-7.7C1209.9,1008.6,1218.6,1008.2,1228.8,1008.2z"
			/>
		<path class="st2" d="M710.2,1110.1c0.3,21.3-3.2,38.4-11.6,54.5c-11.6,22.1-29.5,33.9-54.4,34.3c-24.4,0.4-43.7-10.2-54.8-31.7
			c-18.5-35.8-19.3-73,0.9-108.2c24-41.9,82.8-40.6,107,1.2C706.1,1075.4,710.2,1092,710.2,1110.1z"/>
	</g>
	<g>
		<path class="st1" d="M35.9,1360.6c-2,1-6.1,2-11.3,2c-12.1,0-21.1-7.6-21.1-21.6c0-13.4,9.1-22.5,22.3-22.5
			c5.3,0,8.7,1.1,10.2,1.9l-1.3,4.5c-2.1-1-5.1-1.8-8.6-1.8c-10,0-16.7,6.4-16.7,17.6c0,10.5,6,17.2,16.4,17.2c3.4,0,6.8-0.7,9-1.8
			L35.9,1360.6z"/>
		<path class="st1" d="M53.8,1340.8c0-3.6-0.1-6.7-0.3-9.6h4.9l0.2,6h0.3c1.4-4.1,4.8-6.7,8.5-6.7c0.6,0,1.1,0.1,1.6,0.2v5.3
			c-0.6-0.1-1.1-0.2-1.9-0.2c-3.9,0-6.7,3-7.5,7.2c-0.1,0.8-0.3,1.6-0.3,2.6v16.4h-5.5V1340.8z"/>
		<path class="st1" d="M102.5,1362l-0.4-3.9h-0.2c-1.7,2.4-5,4.6-9.4,4.6c-6.2,0-9.4-4.4-9.4-8.8c0-7.4,6.6-11.5,18.5-11.4v-0.6
			c0-2.5-0.7-7.1-7-7.1c-2.9,0-5.8,0.9-8,2.3l-1.3-3.7c2.5-1.6,6.2-2.7,10.1-2.7c9.4,0,11.7,6.4,11.7,12.6v11.5
			c0,2.7,0.1,5.3,0.5,7.4H102.5z M101.7,1346.3c-6.1-0.1-13,1-13,6.9c0,3.6,2.4,5.3,5.3,5.3c4,0,6.5-2.5,7.4-5.1
			c0.2-0.6,0.3-1.2,0.3-1.8V1346.3z"/>
		<path class="st1" d="M127.9,1362v-26.5h-4.3v-4.3h4.3v-1.5c0-4.3,1-8.2,3.6-10.7c2.1-2,4.9-2.9,7.5-2.9c2,0,3.7,0.4,4.8,0.9
			l-0.8,4.3c-0.8-0.4-2-0.7-3.6-0.7c-4.8,0-6,4.2-6,8.9v1.6h7.4v4.3h-7.4v26.5H127.9z"/>
		<path class="st1" d="M164.6,1322.4v8.8h8v4.3h-8v16.6c0,3.8,1.1,6,4.2,6c1.5,0,2.5-0.2,3.2-0.4l0.3,4.2c-1.1,0.4-2.8,0.8-4.9,0.8
			c-2.6,0-4.7-0.8-6-2.3c-1.6-1.6-2.2-4.4-2.2-8v-16.8h-4.8v-4.3h4.8v-7.4L164.6,1322.4z"/>
		<path class="st1" d="M196.4,1322.6c0.1,1.9-1.3,3.4-3.6,3.4c-2,0-3.4-1.5-3.4-3.4c0-2,1.5-3.5,3.5-3.5
			C195,1319.1,196.4,1320.7,196.4,1322.6z M190.2,1362v-30.7h5.6v30.7H190.2z"/>
		<path class="st1" d="M216.3,1339.6c0-3.2-0.1-5.8-0.3-8.3h4.9l0.3,5.1h0.1c1.5-2.9,5.1-5.8,10.2-5.8c4.3,0,10.8,2.5,10.8,13.1
			v18.3h-5.6v-17.7c0-4.9-1.8-9.1-7.1-9.1c-3.7,0-6.5,2.6-7.5,5.7c-0.3,0.7-0.4,1.6-0.4,2.6v18.5h-5.6V1339.6z"/>
		<path class="st1" d="M289.3,1331.2c-0.1,2.2-0.3,4.7-0.3,8.4v17.8c0,7-1.4,11.4-4.4,14c-3,2.8-7.3,3.7-11.2,3.7
			c-3.7,0-7.7-0.9-10.2-2.5l1.4-4.3c2,1.3,5.2,2.4,9,2.4c5.7,0,9.9-3,9.9-10.7v-3.4h-0.1c-1.7,2.9-5,5.1-9.8,5.1
			c-7.6,0-13.1-6.5-13.1-15c0-10.4,6.8-16.3,13.8-16.3c5.3,0,8.2,2.8,9.6,5.3h0.1l0.3-4.6H289.3z M283.5,1343.4c0-1-0.1-1.8-0.3-2.5
			c-1-3.2-3.7-5.9-7.8-5.9c-5.3,0-9.1,4.5-9.1,11.6c0,6,3,11,9.1,11c3.4,0,6.5-2.2,7.7-5.7c0.3-1,0.4-2,0.4-3V1343.4z"/>
		<path class="st1" d="M360.8,1316.9v37.1c0,2.7,0.1,5.8,0.3,7.9h-5l-0.3-5.3h-0.1c-1.7,3.4-5.5,6-10.5,6c-7.4,0-13.1-6.3-13.1-15.6
			c-0.1-10.2,6.3-16.5,13.8-16.5c4.7,0,7.9,2.2,9.3,4.7h0.1v-18.3H360.8z M355.2,1343.7c0-0.7-0.1-1.6-0.3-2.3
			c-0.8-3.6-3.9-6.5-8.1-6.5c-5.8,0-9.2,5.1-9.2,11.9c0,6.2,3,11.4,9.1,11.4c3.7,0,7.2-2.5,8.2-6.7c0.2-0.8,0.3-1.5,0.3-2.4V1343.7z
			"/>
		<path class="st1" d="M381.4,1340.8c0-3.6-0.1-6.7-0.3-9.6h4.9l0.2,6h0.3c1.4-4.1,4.8-6.7,8.5-6.7c0.6,0,1.1,0.1,1.6,0.2v5.3
			c-0.6-0.1-1.1-0.2-1.9-0.2c-3.9,0-6.7,3-7.5,7.2c-0.1,0.8-0.3,1.6-0.3,2.6v16.4h-5.5V1340.8z"/>
		<path class="st1" d="M415.9,1347.6c0.1,7.6,4.9,10.7,10.5,10.7c4,0,6.4-0.7,8.5-1.6l1,4c-2,0.9-5.3,1.9-10.2,1.9
			c-9.5,0-15.1-6.2-15.1-15.5c0-9.3,5.5-16.6,14.4-16.6c10,0,12.7,8.8,12.7,14.5c0,1.1-0.1,2-0.2,2.6H415.9z M432.3,1343.6
			c0.1-3.6-1.5-9.1-7.7-9.1c-5.6,0-8.1,5.2-8.6,9.1H432.3z"/>
		<path class="st1" d="M472.9,1362l-0.4-3.9h-0.2c-1.7,2.4-5,4.6-9.4,4.6c-6.2,0-9.4-4.4-9.4-8.8c0-7.4,6.6-11.5,18.5-11.4v-0.6
			c0-2.5-0.7-7.1-7-7.1c-2.9,0-5.8,0.9-8,2.3l-1.3-3.7c2.5-1.6,6.2-2.7,10.1-2.7c9.4,0,11.7,6.4,11.7,12.6v11.5
			c0,2.7,0.1,5.3,0.5,7.4H472.9z M472,1346.3c-6.1-0.1-13,1-13,6.9c0,3.6,2.4,5.3,5.3,5.3c4,0,6.5-2.5,7.4-5.1
			c0.2-0.6,0.3-1.2,0.3-1.8V1346.3z"/>
		<path class="st1" d="M497.7,1339.6c0-3.2-0.1-5.8-0.3-8.3h4.9l0.3,4.9h0.2c1.7-2.9,4.6-5.6,9.6-5.6c4.2,0,7.4,2.5,8.7,6.2h0.1
			c1-1.7,2.2-3,3.4-4c1.8-1.4,3.9-2.2,6.8-2.2c4.1,0,10.1,2.7,10.1,13.3v18.1h-5.5v-17.4c0-5.9-2.2-9.5-6.7-9.5
			c-3.2,0-5.6,2.3-6.6,5.1c-0.3,0.8-0.4,1.8-0.4,2.8v19H517v-18.4c0-4.9-2.2-8.4-6.4-8.4c-3.5,0-6,2.8-6.9,5.6
			c-0.3,0.8-0.4,1.8-0.4,2.7v18.5h-5.5V1339.6z"/>
		<path class="st1" d="M561.2,1356.2c1.6,1.1,4.6,2.2,7.4,2.2c4.1,0,6-2,6-4.6c0-2.7-1.6-4.1-5.7-5.6c-5.5-2-8.1-5-8.1-8.7
			c0-4.9,4-9,10.6-9c3.1,0,5.8,0.9,7.6,1.9l-1.4,4.1c-1.2-0.8-3.4-1.8-6.3-1.8c-3.3,0-5.1,1.9-5.1,4.2c0,2.5,1.8,3.7,5.8,5.2
			c5.3,2,8.1,4.7,8.1,9.3c0,5.4-4.2,9.2-11.5,9.2c-3.4,0-6.5-0.8-8.6-2.1L561.2,1356.2z"/>
		<path class="st1" d="M594,1369.8c1.4-3.7,3.1-10.5,3.8-15.2l6.2-0.6c-1.5,5.4-4.3,12.4-6,15.4L594,1369.8z"/>
		<path class="st1" d="M646.8,1339.6c0-3.2-0.1-5.8-0.3-8.3h4.9l0.3,4.9h0.2c1.7-2.9,4.6-5.6,9.6-5.6c4.2,0,7.4,2.5,8.7,6.2h0.1
			c1-1.7,2.2-3,3.4-4c1.8-1.4,3.9-2.2,6.8-2.2c4.1,0,10.1,2.7,10.1,13.3v18.1h-5.5v-17.4c0-5.9-2.2-9.5-6.7-9.5
			c-3.2,0-5.6,2.3-6.6,5.1c-0.3,0.8-0.4,1.8-0.4,2.8v19H666v-18.4c0-4.9-2.2-8.4-6.4-8.4c-3.5,0-6,2.8-6.9,5.6
			c-0.3,0.8-0.4,1.8-0.4,2.7v18.5h-5.5V1339.6z"/>
		<path class="st1" d="M728,1362l-0.4-3.9h-0.2c-1.7,2.4-5,4.6-9.4,4.6c-6.2,0-9.4-4.4-9.4-8.8c0-7.4,6.6-11.5,18.5-11.4v-0.6
			c0-2.5-0.7-7.1-7-7.1c-2.9,0-5.8,0.9-8,2.3l-1.3-3.7c2.5-1.6,6.2-2.7,10.1-2.7c9.4,0,11.7,6.4,11.7,12.6v11.5
			c0,2.7,0.1,5.3,0.5,7.4H728z M727.2,1346.3c-6.1-0.1-13,1-13,6.9c0,3.6,2.4,5.3,5.3,5.3c4,0,6.5-2.5,7.4-5.1
			c0.2-0.6,0.3-1.2,0.3-1.8V1346.3z"/>
		<path class="st1" d="M758.4,1345.3h0.1c0.8-1.1,1.8-2.4,2.7-3.5l9-10.6h6.7l-11.9,12.6l13.5,18.1h-6.8l-10.6-14.7l-2.9,3.2v11.5
			h-5.5v-45h5.5V1345.3z"/>
		<path class="st1" d="M801.2,1322.6c0.1,1.9-1.3,3.4-3.6,3.4c-2,0-3.4-1.5-3.4-3.4c0-2,1.5-3.5,3.5-3.5
			C799.9,1319.1,801.2,1320.7,801.2,1322.6z M795,1362v-30.7h5.6v30.7H795z"/>
		<path class="st1" d="M821.2,1339.6c0-3.2-0.1-5.8-0.3-8.3h4.9l0.3,5.1h0.1c1.5-2.9,5.1-5.8,10.2-5.8c4.3,0,10.8,2.5,10.8,13.1
			v18.3h-5.6v-17.7c0-4.9-1.8-9.1-7.1-9.1c-3.7,0-6.5,2.6-7.5,5.7c-0.3,0.7-0.4,1.6-0.4,2.6v18.5h-5.6V1339.6z"/>
		<path class="st1" d="M894.1,1331.2c-0.1,2.2-0.3,4.7-0.3,8.4v17.8c0,7-1.4,11.4-4.4,14c-3,2.8-7.3,3.7-11.2,3.7
			c-3.7,0-7.7-0.9-10.2-2.5l1.4-4.3c2,1.3,5.2,2.4,9,2.4c5.7,0,9.9-3,9.9-10.7v-3.4h-0.1c-1.7,2.9-5,5.1-9.8,5.1
			c-7.6,0-13.1-6.5-13.1-15c0-10.4,6.8-16.3,13.8-16.3c5.3,0,8.2,2.8,9.6,5.3h0.1l0.3-4.6H894.1z M888.3,1343.4c0-1-0.1-1.8-0.3-2.5
			c-1-3.2-3.7-5.9-7.8-5.9c-5.3,0-9.1,4.5-9.1,11.6c0,6,3,11,9.1,11c3.4,0,6.5-2.2,7.7-5.7c0.3-1,0.4-2,0.4-3V1343.4z"/>
		<path class="st1" d="M939.2,1339.6c0-3.2-0.1-5.8-0.3-8.3h4.9l0.3,4.9h0.2c1.7-2.9,4.6-5.6,9.6-5.6c4.2,0,7.4,2.5,8.7,6.2h0.1
			c1-1.7,2.2-3,3.4-4c1.8-1.4,3.9-2.2,6.8-2.2c4.1,0,10.1,2.7,10.1,13.3v18.1h-5.5v-17.4c0-5.9-2.2-9.5-6.7-9.5
			c-3.2,0-5.6,2.3-6.6,5.1c-0.3,0.8-0.4,1.8-0.4,2.8v19h-5.5v-18.4c0-4.9-2.2-8.4-6.4-8.4c-3.5,0-6,2.8-6.9,5.6
			c-0.3,0.8-0.4,1.8-0.4,2.7v18.5h-5.5V1339.6z"/>
		<path class="st1" d="M1006.5,1347.6c0.1,7.6,4.9,10.7,10.5,10.7c4,0,6.4-0.7,8.5-1.6l1,4c-2,0.9-5.3,1.9-10.2,1.9
			c-9.5,0-15.1-6.2-15.1-15.5c0-9.3,5.5-16.6,14.4-16.6c10,0,12.7,8.8,12.7,14.5c0,1.1-0.1,2-0.2,2.6H1006.5z M1022.8,1343.6
			c0.1-3.6-1.5-9.1-7.7-9.1c-5.6,0-8.1,5.2-8.6,9.1H1022.8z"/>
		<path class="st1" d="M1046.4,1339.6c0-3.2-0.1-5.8-0.3-8.3h4.9l0.3,4.9h0.2c1.7-2.9,4.6-5.6,9.6-5.6c4.2,0,7.4,2.5,8.7,6.2h0.1
			c1-1.7,2.2-3,3.4-4c1.8-1.4,3.9-2.2,6.8-2.2c4.1,0,10.1,2.7,10.1,13.3v18.1h-5.5v-17.4c0-5.9-2.2-9.5-6.7-9.5
			c-3.2,0-5.6,2.3-6.6,5.1c-0.3,0.8-0.4,1.8-0.4,2.8v19h-5.5v-18.4c0-4.9-2.2-8.4-6.4-8.4c-3.5,0-6,2.8-6.9,5.6
			c-0.3,0.8-0.4,1.8-0.4,2.7v18.5h-5.5V1339.6z"/>
		<path class="st1" d="M1138.4,1346.3c0,11.4-7.9,16.3-15.3,16.3c-8.3,0-14.7-6.1-14.7-15.8c0-10.3,6.7-16.3,15.2-16.3
			C1132.5,1330.5,1138.4,1337,1138.4,1346.3z M1114.1,1346.7c0,6.7,3.9,11.8,9.3,11.8c5.3,0,9.3-5,9.3-11.9c0-5.2-2.6-11.8-9.2-11.8
			C1116.9,1334.7,1114.1,1340.8,1114.1,1346.7z"/>
		<path class="st1" d="M1156.8,1340.8c0-3.6-0.1-6.7-0.3-9.6h4.9l0.2,6h0.3c1.4-4.1,4.8-6.7,8.5-6.7c0.6,0,1.1,0.1,1.6,0.2v5.3
			c-0.6-0.1-1.1-0.2-1.9-0.2c-3.9,0-6.7,3-7.5,7.2c-0.1,0.8-0.3,1.6-0.3,2.6v16.4h-5.5V1340.8z"/>
		<path class="st1" d="M1195.3,1322.6c0.1,1.9-1.3,3.4-3.6,3.4c-2,0-3.4-1.5-3.4-3.4c0-2,1.5-3.5,3.5-3.5
			C1194,1319.1,1195.3,1320.7,1195.3,1322.6z M1189.1,1362v-30.7h5.6v30.7H1189.1z"/>
		<path class="st1" d="M1218.3,1347.6c0.1,7.6,4.9,10.7,10.5,10.7c4,0,6.4-0.7,8.5-1.6l1,4c-2,0.9-5.3,1.9-10.2,1.9
			c-9.5,0-15.1-6.2-15.1-15.5c0-9.3,5.5-16.6,14.4-16.6c10,0,12.7,8.8,12.7,14.5c0,1.1-0.1,2-0.2,2.6H1218.3z M1234.7,1343.6
			c0.1-3.6-1.5-9.1-7.7-9.1c-5.6,0-8.1,5.2-8.6,9.1H1234.7z"/>
		<path class="st1" d="M1257.5,1356.2c1.6,1.1,4.6,2.2,7.4,2.2c4.1,0,6-2,6-4.6c0-2.7-1.6-4.1-5.7-5.6c-5.5-2-8.1-5-8.1-8.7
			c0-4.9,4-9,10.6-9c3.1,0,5.8,0.9,7.5,1.9l-1.4,4.1c-1.2-0.8-3.4-1.8-6.3-1.8c-3.3,0-5.1,1.9-5.1,4.2c0,2.5,1.8,3.7,5.8,5.2
			c5.3,2,8.1,4.7,8.1,9.3c0,5.4-4.2,9.2-11.5,9.2c-3.4,0-6.5-0.8-8.6-2.1L1257.5,1356.2z"/>
	</g>
	<line class="st3" x1="81.4" y1="1284" x2="1000.1" y2="1284"/>
	<g>
		<g>
			<g transform="translate(87.328124, 92.272787)">
				<g>
					<path class="st4" d="M172.1,42.5c0.5,1.3,0.7,2.9,0.6,4.8c-0.1,1.9-1.2,2.7-3.2,2.4c-8.7-1.1-17.5-0.5-26.1,2
						c-8.7,2.4-17.1,5.7-25.2,10c-8,4.2-15.5,8.4-22.3,12.8c-0.6,0.2-1.1,0.5-1.5,0.9c-0.5,0.3-1,0.6-1.7,0.8c1.2,1,2.2,2,3,2.9
						c3.9,4.6,5.5,8.9,4.6,12.8c-0.8,3.9-2.9,7.5-6.4,10.8c-3.4,3.2-7,6.3-10.9,9.1c-14.3,10-30.2,16.8-47.9,20.5
						c-2.8,0.5-5.7-0.5-8.6-2.9c-2.8-2.4-4.3-5-4.3-7.7c0-5.3,1.2-10,3.7-14c2.5-4,5.6-7.7,9.3-11.1c3.7-3.3,7.4-6.5,11.2-9.6
						c2.1-1.7,4.3-3.3,6.6-5c2.3-1.6,4.4-3.2,6.5-4.9c-6.2-1.4-12.6-2.9-19-4.4c-6.5-1.6-12.9-3.1-19.1-4.6C14,66,6,64-2.6,61.7
						c-8.5-2.3-16.7-5.2-24.5-8.8c-7.8-3.7-14.5-8.4-20.2-14.1c-5.6-5.7-9.2-12.8-10.6-21.4C-59.4,8.3-57.8-0.1-53-7.8
						c4.7-7.7,10.2-14.5,16.5-20.5c6.9-6.6,14.2-12.7,22.1-18.3c7.9-5.7,16-10.9,24.3-15.6C27.4-71.8,45.8-79.3,65-84.6
						c5.5-1.4,11.6-2.9,18.2-4.5c6.7-1.6,13.4-2.7,20-3.1c6.7-0.4,12.9,0.3,18.7,2.2c7.4,2.6,13.4,7.1,18.1,13.6
						c4.6,6.4,7.4,13.3,8.4,20.6c0.8,6.3,0.1,12.4-2,18.1c-2.1,5.7-4.8,11.2-8.4,16.4s-7.2,10.2-11,14.9c-0.9,1.4-2.4,1.9-4.3,1.2
						c-1.9-0.7-3.7-1.8-5.4-3.4c-1.7-1.6-3-3.4-3.9-5.3c-0.8-2-0.6-3.6,0.5-5.1c2.7-3.5,5.5-7.4,8.5-11.7c3.1-4.3,5.7-8.8,7.9-13.5
						c2.2-4.8,3.4-9.5,3.7-14.3c0.3-4.8-0.9-9.3-3.8-13.7c-1.9-2.9-4.7-4.6-8.3-5.2c-3.6-0.7-7.4-0.7-11.3,0
						c-3.9,0.6-7.3,1.1-10.4,1.5c-9.5,1.6-19,3.8-28.2,6.6c-17.5,4.9-34.2,11.8-50,20.6C6.1-39.8-8.3-29.4-21.4-17.4
						c-3.8,3.5-7.7,7.6-11.8,12.4c-4.1,4.8-7.2,10-9.2,15.5c-2,5.4-1.7,11,0.7,16.6c1.7,4,4.5,7.3,8.4,10c3.9,2.7,8.2,4.8,12.8,6.5
						c4.5,1.6,8.9,3,12.9,4.3c9.3,2.6,18.7,4.9,28.4,7c9.6,2.1,19.1,4.2,28.4,6.3c4,1,8.2,1.9,12.4,2.7c4.3,0.8,8.5,1.7,12.8,2.8
						c1.2-0.9,2.6-1.8,4-2.6c1.5-0.8,2.9-1.7,4.3-2.6c7.6-4.5,15.7-9.1,24.3-13.6c8.7-4.6,17.6-8.2,26.9-10.8
						c9.3-2.5,18.6-3.3,28-2.2C166.5,35.7,170,38.1,172.1,42.5z M83,87.9c1.7-1.7,2.7-2.8,2.8-3.4c0.2-0.5-0.7-1.1-2.8-1.8
						c-7.2,4.9-14.1,9.9-20.8,15.1c-2.7,2-5.6,4.1-8.7,6.5c-3.1,2.4-5.9,5-8.4,7.7c7.1-2.7,13.8-6.1,20.1-10.1
						C71.5,97.8,77.4,93.1,83,87.9z"/>
				</g>
			</g>
		</g>
		<g>
			<g transform="translate(118.373898, 92.272787)">
				<g>
					<path class="st4" d="M278.8-29.4c1.7,0.9,3.4,2.3,5.2,4.3c1.8,1.9,2.6,3.8,2.5,5.8c-0.2,2-1,3.2-2.6,3.5
						c-1.5,0.2-3.1-0.1-4.8-1c-7.4-3.6-15.2-6.1-23.4-7.4c-8.2-1.3-16.4-2.2-24.5-2.7c-16.2-0.9-32.5-1.3-48.8-1.1
						c-0.2,0-0.4,0-0.6,0c-0.2,0-0.2,0-0.2,0c-8.4,17.7-16.1,35.6-23,53.9C151.6,44,146,62.5,142,81.2c-4.1,18.8-5.9,37.9-5.6,57.5
						c0,2.2-0.7,3.3-2.2,3.5c-1.5,0.1-3.2-0.4-5.2-1.6c-2-1.1-3.8-2.6-5.3-4.3c-1.6-1.8-2.4-3.5-2.4-5.1c-0.5-27.6,3.2-54.6,11.2-81
						c7.9-26.5,17.6-52.3,29.1-77.4c-27.4,1.5-54.5,4.7-81.3,9.6c-1.7,0.4-3.6-0.1-5.6-1.4c-2-1.3-3.8-2.8-5.2-4.6
						c-1.4-1.8-2.2-3.5-2.4-5.2c-0.2-1.6,0.5-2.7,2.2-3.1c16.3-2.9,32.8-5.2,49.4-7c16.5-1.9,33.1-3,49.9-3.3
						c3.1-6.4,6.1-12.7,9.1-19c3.1-6.3,6.2-12.5,9.5-18.8c0.8-1.6,2.1-2.2,4-1.9c1.9,0.2,3.8,1.1,5.7,2.6c1.9,1.4,3.3,3.1,4.4,4.9
						c1.1,1.8,1.2,3.5,0.5,4.9c-2.3,4.6-4.5,9.1-6.7,13.6c-2.2,4.5-4.4,8.9-6.6,13.2c10,0,20.3,0.2,30.8,0.6
						c10.5,0.3,20.9,1.4,31.1,3.4C260.6-36.9,270.1-33.7,278.8-29.4z"/>
				</g>
			</g>
		</g>
		<g>
			<g transform="translate(124.183264, 92.272787)">
				<g>
					<path class="st4" d="M275.2,40.8c1.7-1.6,3.6-1.9,5.7-1c2.1,0.9,3.6,2.4,4.5,4.4c0.9,2,0.5,3.8-0.9,5.4
						c-5.8,5.7-11.6,11.3-17.5,16.9C261,72,254.8,76.8,248.2,81c-3.2,2.2-6.6,3.8-10,4.9c-3.4,1.1-6.9,0.6-10.5-1.6
						c-3.8-2.2-6.3-5.1-7.6-8.6c-1.2-3.5-1.5-7.3-0.9-11.3c0-0.1,0-0.3,0-0.5c0-0.2,0.1-0.5,0.2-0.7c-4.6,4-9.2,7.9-13.9,11.5
						c-4.7,3.6-9.8,6.9-15.1,9.8c-4.7,2.7-9.5,4.3-14.4,4.8c-4.9,0.5-9.2-1.8-13-6.7c-3.2-4.2-4.4-9.2-3.4-15.1
						c0.9-5.8,3-11.4,6.1-16.9c3.2-5.5,6.3-10,9.3-13.5c1.1-1.3,2.6-1.6,4.6-0.9c2,0.6,3.9,1.8,5.6,3.4c1.7,1.6,3,3.4,3.8,5.3
						c0.8,1.9,0.6,3.5-0.6,4.8c-2.1,2.3-4,4.8-5.4,7.5c-1.5,2.7-2.8,5.4-4,8.1c-1.4,2.7-2.3,5.1-2.8,7c2.3-1,4.5-2.3,6.7-3.8
						c2.2-1.6,4.3-3.1,6.4-4.5c7.1-5.3,13.8-10.8,20.1-16.5c6.4-5.7,12.8-11.4,19.3-17.1c1.9-1.6,4.1-1.8,6.5-0.5
						c2.4,1.4,4.3,3.3,5.9,5.7c1.7,2.3,2.2,4.4,1.7,6.2c-1.2,4-2.4,8-3.7,12c-1.2,4-2.2,8-3.2,12.1c-0.2,0.7-0.4,1.5-0.6,2.4
						c4-0.9,8.6-3,13.7-6.2c5.1-3.3,10-7,14.8-11C268.3,47.2,272.2,43.7,275.2,40.8z"/>
				</g>
			</g>
		</g>
		<g>
			<g transform="translate(138.178426, 92.272787)">
				<g>
					<path class="st4" d="M380-80.7c2.4,0.8,4.8,2.3,7,4.8c2.2,2.3,3.1,4.5,2.7,6.5c0,0.4-0.1,0.8-0.2,1.1
						c-14.7,27.5-28.8,55.1-42.5,83c-13.7,27.8-25.8,56.2-36.3,85.3c-0.6,1.8-1.7,2.5-3.5,2.3c-1.8-0.2-3.7-1-5.6-2.4
						c-1.9-1.4-3.4-3-4.6-5c-1.1-1.9-1.4-3.7-0.8-5.3c2.1-5.8,4.3-11.7,6.4-17.5c2.2-5.9,4.5-11.8,7.1-17.4
						c-7.3,7.3-15.1,14-23.6,20c-8.4,5.9-17.9,10.8-28.4,14.4c-1.9,0.7-3.9,0.5-6-0.9c-2.2-1.4-3.9-3.1-5.2-5.3
						c-1.2-2.2-1.7-4.2-1.3-6c1.9-8.2,5.1-16.2,9.7-23.9c4.6-7.8,10.4-14.2,17.4-19.4c5-3.6,10.3-5.3,16-5
						c5.7,0.2,10.7,2.2,14.9,5.8c1.2-1.2,2.2-2.4,3.2-3.5c13.7-16.7,26.1-34.4,37.1-53.1c11-18.7,21.4-37.5,31.3-56.5
						c0.1-0.1,0.2-0.3,0.2-0.6c0.8-1,1.9-1.6,3.4-1.6C378.8-81,379.4-80.9,380-80.7z M268.2,65.7c5.1-3.1,10-6.6,14.5-10.5
						c4.5-3.9,8.9-8.1,13.1-12.4c-0.4-0.1-0.7-0.2-0.8-0.2c-0.6,0-1.2,0.1-1.8,0.1c-0.6,0.1-1.1,0.2-1.7,0.5c-1.6,0.4-3.1,1-4.5,1.9
						c-1.4,0.9-2.7,1.8-3.8,2.7c-2,1.6-3.8,3.3-5.6,5.2c-1.7,1.8-3.2,3.6-4.7,5.4C271.3,60.7,269.6,63.1,268.2,65.7z"/>
				</g>
			</g>
		</g>
		<g>
			<g transform="translate(150.928746, 92.272787)">
				<g>
					<path class="st4" d="M404.6,41.7c1.7-1.5,3.7-1.8,5.8-1c2.2,0.8,3.8,2.2,4.7,4.2c1,1.9,0.6,3.6-1.1,5
						c-4.6,3.6-9.3,7.2-14.2,10.9c-4.8,3.6-9.7,7-14.7,10.2c-4.2,2.6-8.6,5.2-13.1,7.9c-4.6,2.7-9.2,4.6-13.9,5.8
						c-3.9,0.5-7.4-0.1-10.8-1.7c-3.3-1.7-6-4-8-7c-2.1-2.9-3.2-6.2-3.2-9.8c-0.2-6,1.5-12.3,5.1-18.8c3.6-6.5,7-12.3,10-17.3
						c1.1-1.6,2.6-2.3,4.5-1.9c1.9,0.4,3.9,1.3,5.8,2.7c1.9,1.4,3.3,3.1,4.3,5c0.9,1.8,1,3.4,0.2,4.6c-2.5,4-4.7,8-6.9,12.1
						c-2.1,4.1-4,8.2-5.7,12.4c-0.4,1.1-0.9,2.2-1.4,3.5c4-0.5,9.2-2.2,15.7-5.1c6.4-2.9,13-6.4,19.7-10.3
						C394.3,49.1,400,45.3,404.6,41.7z M378.9,13.3c-1.1,2.2-3.1,2.8-5.9,1.7c-2.8-1.1-5.2-2.9-7.3-5.4c-2.1-2.5-2.6-4.7-1.7-6.7
						c1.7-3.3,3-5.7,3.7-7.2c0.8-1.6,1.2-2.4,1.2-2.4c1.2-1.6,2.7-2.2,4.6-1.9c1.9,0.2,3.7,1.1,5.6,2.6c1.8,1.4,3.2,3.1,4.3,4.9
						c1.1,1.8,1.2,3.5,0.5,4.9c0,0-0.3,0.6-0.8,1.8C382.4,6.6,381,9.2,378.9,13.3z"/>
				</g>
			</g>
		</g>
		<g>
			<g transform="translate(158.926014, 92.272787)">
				<g>
					<path class="st4" d="M436.5,39.4c0.8,7.1,0.1,14.1-1.9,20.9c-2,6.9-5.3,13-9.8,18.4c-4.2,5.3-9.3,8.7-15.2,10.2
						c-6,1.6-11.6-0.5-16.9-6.1c-4.8-5.1-6.8-10.6-6-16.6c0.8-6,3.3-11.8,7.4-17.4c4.2-5.7,9-10.7,14.5-15.2
						c5.5-4.5,10.5-7.9,15.1-10.1c1.9-0.9,4-0.5,6.4,1.1c2.4,1.7,4.2,3.7,5.6,6.2c1.3,2.4,1.3,4.4,0,5.8
						C436,37.6,436.3,38.5,436.5,39.4z M417.1,57.8c1.7-3.6,3-7.4,3.8-11.4c-2.9,2.3-5.5,4.9-7.8,7.6c-2.8,3.5-5.2,7.2-7.1,11.2
						c-0.6,0.9-1,1.8-1.4,2.7c-0.4,0.9-0.8,1.9-1.2,2.8c0,0.2-0.1,0.6-0.1,1.4c-0.1,0.7-0.2,1.3-0.4,1.9c1.1-1,2.2-1.8,3.2-2.4
						c1.1-0.6,2.1-1.4,3.1-2.4C412.4,65.8,415,62,417.1,57.8z"/>
				</g>
			</g>
		</g>
	</g>
</g>
<rect y="-3.1" class="st12" width="1290.1" height="1442"/>
</svg>
