<?xml version="1.0" encoding="UTF-8"?>
<!DOCTYPE svg PUBLIC "-//W3C//DTD SVG 1.1//EN" "http://www.w3.org/Graphics/SVG/1.1/DTD/svg11.dtd">
<!-- Creator: CorelDRAW 2020 (64-Bit) -->
<svg xmlns="http://www.w3.org/2000/svg" xml:space="preserve" width="8.26772in" height="11.6929in" version="1.1" style="shape-rendering:geometricPrecision; text-rendering:geometricPrecision; image-rendering:optimizeQuality; fill-rule:evenodd; clip-rule:evenodd"
viewBox="0 0 8267.72 11692.91"
 xmlns:xlink="http://www.w3.org/1999/xlink"
 xmlns:xodm="http://www.corel.com/coreldraw/odm/2003">
 <defs>
  <style type="text/css">
   <![CDATA[
    .fil0 {fill:#003399;fill-rule:nonzero}
    .fil1 {fill:#3E4095}
    .fil2 {fill:#24BCEB}
   ]]>
  </style>
    <clipPath id="id0">
     <path d="M2744.98 4413.91l3917.09 16.3 0 591.49 -3917.09 -16.3 0 -591.49z"/>
    </clipPath>
   <clipPath id="id1">
    <path d="M5466.67 3797.83l1119.2 0 0 267.59c-12.61,36.39 -11.85,74.85 0,109.45l0 218.15 -1119.2 0 0 -595.19z"/>
   </clipPath>
    <clipPath id="id2">
     <path d="M2639.94 5311.26l1363 0 -1414.38 -33.8 -1363 0 1414.38 33.8z"/>
    </clipPath>
    <clipPath id="id3">
     <path d="M1225.56 4103.44c0.71,2.04 1.57,4.04 2.58,5.98l8.17 15.04 3.98 12.84c1.44,4.2 3.54,8.24 6.22,11.91l1.08 1.39 1.77 4.5 4.93 11.36 2.09 3.98 8.83 14.63 0.66 3.04c-4.19,0.68 -8.29,1.99 -12.14,3.67l-7.41 3.42 -3.13 0.95c-2.35,0.72 -4.49,1.44 -6.73,2.44 -4.02,1.78 -7.58,3.98 -10.89,6.61l0 -101.77zm0 233.89l156.8 0 4.59 2.33 2.8 1.26c6.44,3.22 13.69,5.09 21.01,5.43 3.85,0.17 8.76,0.06 12.54,-0.47 24.98,-3.51 43.11,-23.99 41.82,-47.31 -0.2,-3.78 -0.95,-7.56 -2.16,-11.19l-2.46 -6.81c-0.79,-2.16 -1.57,-4.13 -2.65,-6.2 -1.83,-3.49 -4.15,-6.81 -6.91,-9.74 4.41,-1.38 8.33,-3.09 12.2,-5.5 17.33,-10.78 25.44,-30.44 20.23,-49.1 -2.8,-10.02 -9.41,-18.98 -18.41,-25.16 1.34,-0.21 2.65,-0.63 4.08,-1.44 6.74,-3.77 8.07,-12.35 2.33,-17.77l-5.98 -5.51c-0.19,-0.24 -1.54,-3.01 -2.37,-4.17l-1.51 -1.68 -1.84 -1.7 -6.86 -8.43c-0.9,-1.07 -1.79,-1.86 -3,-2.63l-5.15 -3.16c-0.16,-0.15 -5.39,-8.39 -6.32,-9.67l-1.51 -1.69 -9 -8.28 -4.3 -5.93c-1.31,-1.75 -2.82,-2.93 -4.88,-3.89l-1.83 -0.84c-0.24,-0.2 -2.89,-4.27 -4.25,-5.64 -1.12,-1.14 -2.31,-1.92 -3.79,-2.61l-1.82 -0.84c-0.25,-0.2 -2.9,-4.27 -4.25,-5.64 -2.39,-2.41 -5.61,-3.68 -9.15,-3.72 -3.4,-0.04 -5.85,-0.05 -8.87,1.65 -0.87,0.48 -1.61,1.03 -2.33,1.68l-0.12 0.11 -13.8 -19.06 -11.2 -16.5 -11.51 -19.07c-1.28,-2.08 -2.34,-3.59 -3.86,-5.53l-19.73 -24.99 -3.03 -3.36 -17.26 -18.17c-1.6,-1.61 -3.33,-3.13 -5.15,-4.52l-5.29 -3.89 -3.19 -5.3 -1.25 -8.07c-1.16,-6.65 -3.77,-12.92 -7.87,-18.51l-12.42 -16.02 -6.79 -9.37 -4.35 -9.78 -11.77 -21.66 -0.69 -1.59c-0.02,-1.85 -0.54,-5.22 -0.94,-7.08 -2.3,-10.32 -8.31,-19.2 -16.58,-25.61l0 -148.32 1363 0 0 1570.74 -1363 -6 0 -934.13z"/>
    </clipPath>
 </defs>
 <g id="Layer_x0020_1">
  <metadata id="CorelCorpID_0Corel-Layer"/>
  <path class="fil0" d="M2909.75 5212.58c-1.02,6.17 -2.91,19.72 -5.69,40.6 -1.11,9.84 -1.84,23.12 -2.13,39.8 -22.88,5.37 -41.48,8 -55.91,8 -28.27,0 -49.64,-7.46 -64.06,-22.4 -14.38,-14.93 -21.61,-33.18 -21.61,-54.78 0,-28.26 10.54,-51.91 31.62,-70.83 21.03,-18.96 47.11,-28.44 78.25,-28.44 14.52,0 27.15,1.25 37.98,3.8l-7.96 30.9c-13.65,-3.57 -26.13,-5.36 -37.4,-5.36 -19.77,0 -35.36,6.44 -46.78,19.27 -11.41,12.83 -17.15,28.62 -17.15,47.4 0,15.11 4.52,27.9 13.6,38.32 9.03,10.46 22,15.65 38.9,15.65 5.15,0 11.22,-0.49 18.22,-1.57 -0.1,-1.56 -0.15,-4.52 -0.15,-8.9 0,-4.11 0.39,-11.85 1.07,-23.21 0.73,-11.36 1.07,-20.79 1.07,-28.26l38.13 0zm161.06 13.1c0,21.28 -7.33,39.44 -22.1,54.42 -14.77,14.98 -33.71,22.45 -56.88,22.45 -16.13,0 -29.97,-5.41 -41.53,-16.32 -11.56,-10.87 -17.34,-25.22 -17.34,-43.15 0,-21.19 7.38,-39.17 22.2,-53.84 14.76,-14.67 33.8,-22 57.02,-22 16.22,0 30.07,5.28 41.48,15.79 11.46,10.51 17.15,24.73 17.15,42.66zm-35.99 2.86c0,-10.82 -2.52,-19.72 -7.57,-26.65 -5.1,-6.93 -12,-10.42 -20.74,-10.42 -11.17,0 -20.26,5.19 -27.25,15.61 -6.94,10.37 -10.44,21.82 -10.44,34.3 0,10.82 2.57,19.72 7.68,26.65 5.15,6.97 12.09,10.42 20.93,10.42 11.46,0 20.59,-5.14 27.3,-15.38 6.75,-10.28 10.1,-21.78 10.1,-34.52zm191.8 -2.86c0,21.28 -7.33,39.44 -22.1,54.42 -14.76,14.98 -33.71,22.45 -56.87,22.45 -16.13,0 -29.97,-5.41 -41.53,-16.32 -11.56,-10.87 -17.34,-25.22 -17.34,-43.15 0,-21.19 7.38,-39.17 22.19,-53.84 14.77,-14.67 33.81,-22 57.02,-22 16.22,0 30.06,5.28 41.48,15.79 11.46,10.51 17.15,24.73 17.15,42.66zm-35.99 2.86c0,-10.82 -2.53,-19.72 -7.58,-26.65 -5.1,-6.93 -12,-10.42 -20.74,-10.42 -11.17,0 -20.25,5.19 -27.25,15.61 -6.94,10.37 -10.44,21.82 -10.44,34.3 0,10.82 2.57,19.72 7.67,26.65 5.15,6.97 12.09,10.42 20.93,10.42 11.46,0 20.59,-5.14 27.3,-15.38 6.75,-10.28 10.1,-21.78 10.1,-34.52zm200.64 -116.35c0,2.28 -1.6,11.72 -4.81,28.31 -3.26,16.59 -6.07,36.22 -8.55,58.89 -2.48,22.67 -3.69,44 -3.69,63.98 0,11.81 0.34,23.12 1.12,33.94l-32.88 1.57c-1.12,-7.24 -1.7,-15.74 -1.7,-25.54l-1.85 0.13c-11.37,18.24 -27.88,27.37 -49.54,27.37 -14.04,0 -24.82,-4.61 -32.35,-13.81 -7.53,-9.21 -11.31,-21.51 -11.31,-36.89 0,-22.58 6.56,-41.9 19.72,-57.82 13.11,-15.96 30.5,-23.92 52.16,-23.92 12.78,0 22.69,2.91 29.72,8.67l1.99 0c1.8,-18.38 3.3,-39.57 4.57,-63.67l37.4 -1.21zm-43.81 86.08c-6.75,-3.94 -14.28,-5.91 -22.64,-5.91 -14.43,0 -25.2,5.06 -32.3,15.16 -7.14,10.06 -10.69,22 -10.69,35.81 0,21.91 7.68,32.87 23.07,32.87 9.18,0 17.73,-5.59 25.6,-16.81 7.87,-11.22 12.58,-23.43 14.09,-36.62l2.87 -24.5zm250.19 9.57c0,7.69 -1.31,22.09 -3.84,43.24 -2.57,21.15 -3.84,36.58 -3.84,46.37l-36.72 1.3c0,-4.2 1.55,-16.63 4.66,-37.38 3.16,-20.75 4.71,-35.41 4.71,-43.95 0,-9.08 -1.41,-15.38 -4.28,-18.87 -2.81,-3.49 -7.58,-5.23 -14.23,-5.23 -8.26,0 -16.27,5.19 -24.04,15.61 -7.77,10.37 -12.48,23.03 -14.09,37.96 -2.09,18.78 -3.64,35.64 -4.71,50.57l-35.99 1.3c1.7,-11.44 5.83,-44.31 12.38,-98.64 3.79,-33.27 5.69,-62.2 5.69,-86.83l39.15 -2.1c0,3.85 -1.8,17.17 -5.34,40.02 -3.54,22.85 -6.07,37.83 -7.62,44.98l1.99 0c11.12,-18.24 27.54,-27.37 49.25,-27.37 24.57,0 36.87,13.01 36.87,39.04zm148.67 -7.74c0,26.03 -30.41,39.57 -91.22,40.6 0,11.54 2.33,20.17 6.99,25.89 4.67,5.72 12.78,8.59 24.33,8.59 15.15,0 31.43,-4.52 48.81,-13.5l-4.42 25.93c-14.13,9.08 -32.06,13.64 -53.77,13.64 -19.38,0 -33.66,-5.36 -42.93,-16.05 -9.23,-10.69 -13.85,-24.86 -13.85,-42.52 0,-22.76 7.72,-41.05 23.27,-54.82 15.49,-13.72 33.85,-20.61 55.13,-20.61 14.72,0 26.23,2.78 34.58,8.36 8.69,5.77 13.07,13.95 13.07,24.5zm-31.72 2.64c0,-8.49 -7.09,-12.7 -21.23,-12.7 -8.06,0 -15.69,2.73 -22.87,8.18 -7.24,5.46 -11.9,13.28 -14.09,23.52 38.81,-0.71 58.19,-7.06 58.19,-19zm104.33 -91.57c0,4.47 -1.46,15.92 -4.28,34.39 -2.86,18.47 -5.34,36.67 -7.38,54.55 -4.66,40.47 -7.67,72.75 -8.98,96.94l-36.87 1.97c0,-1.48 1.56,-12.74 4.61,-33.72 3.11,-21.02 5.93,-42.75 8.5,-65.2 3.89,-34.03 5.83,-63 5.83,-86.83l38.56 -2.1zm154.7 108.35c0,22.63 -6.56,41.9 -19.72,57.81 -13.11,15.96 -30.5,23.92 -52.16,23.92 -13.65,0 -23.56,-2.95 -29.73,-8.9l-1.7 0c-2.48,21.37 -4.52,42.84 -6.12,64.3l-37.01 0.67c11.95,-80.53 17.93,-131.91 17.93,-154.18 0,-8.32 -0.73,-18.07 -2.28,-29.24l35.02 -3.67c0.87,6.75 1.26,15.38 1.26,25.94l1.75 0c11.17,-18.24 27.59,-27.37 49.2,-27.37 14.04,0 24.82,4.61 32.3,13.82 7.53,9.21 11.27,21.51 11.27,36.89zm-35.85 6.8c0,-22 -7.77,-33 -23.22,-33 -9.18,0 -17.78,5.63 -25.74,16.95 -7.96,11.31 -12.72,23.52 -14.23,36.62l-2.87 24.37c6.94,3.94 14.57,5.91 22.93,5.91 14.43,0 25.21,-5.06 32.35,-15.16 7.19,-10.06 10.78,-21.95 10.78,-35.68zm205.07 -52.14l-3.89 26.07c-13.36,-0.54 -24.33,-0.76 -32.83,-0.76 -3.98,23.74 -5.98,41.36 -5.98,52.9 0,8.72 1.02,14.71 3.11,17.97 2.09,3.22 5.83,4.83 11.27,4.83 8.31,0 17.19,-2.73 26.57,-8.14l-4.81 23.83c-8.55,6.21 -19.19,9.3 -31.91,9.34 -13.46,-0.04 -23.02,-3.04 -28.7,-9.12 -5.69,-6.08 -8.55,-16.32 -8.55,-30.72 0,-10.65 2.38,-30.94 7.09,-60.91 -4.52,0 -11.03,0.22 -19.48,0.76l3.98 -25.8c7.24,0.54 13.8,0.8 19.77,0.8 0.97,-6.13 3.01,-18.33 6.12,-36.57l31.62 -3.8c-1.65,8.32 -3.84,21.78 -6.7,40.38 7.58,0 18.7,-0.35 33.32,-1.07zm154.79 51.51c0,21.28 -7.33,39.44 -22.1,54.42 -14.77,14.98 -33.71,22.45 -56.88,22.45 -16.12,0 -29.96,-5.41 -41.53,-16.32 -11.56,-10.87 -17.34,-25.22 -17.34,-43.15 0,-21.19 7.38,-39.17 22.2,-53.84 14.76,-14.67 33.81,-22 57.02,-22 16.22,0 30.07,5.28 41.48,15.79 11.46,10.51 17.15,24.73 17.15,42.66zm-35.99 2.86c0,-10.82 -2.52,-19.72 -7.57,-26.65 -5.1,-6.93 -12,-10.42 -20.74,-10.42 -11.17,0 -20.25,5.19 -27.25,15.61 -6.94,10.37 -10.44,21.82 -10.44,34.3 0,10.82 2.57,19.72 7.67,26.65 5.15,6.97 12.09,10.42 20.93,10.42 11.46,0 20.59,-5.14 27.3,-15.38 6.75,-10.28 10.1,-21.78 10.1,-34.52zm204.82 -54.37l-3.89 26.07c-13.36,-0.54 -24.33,-0.76 -32.83,-0.76 -3.98,23.74 -5.97,41.36 -5.97,52.9 0,8.72 1.02,14.71 3.11,17.97 2.09,3.22 5.83,4.83 11.27,4.83 8.31,0 17.2,-2.73 26.57,-8.14l-4.81 23.83c-8.55,6.21 -19.19,9.3 -31.91,9.34 -13.45,-0.04 -23.02,-3.04 -28.7,-9.12 -5.68,-6.08 -8.55,-16.32 -8.55,-30.72 0,-10.65 2.38,-30.94 7.09,-60.91 -4.52,0 -11.03,0.22 -19.48,0.76l3.98 -25.8c7.24,0.54 13.79,0.8 19.77,0.8 0.97,-6.13 3.01,-18.33 6.12,-36.57l31.62 -3.8c-1.65,8.32 -3.83,21.78 -6.7,40.38 7.57,0 18.7,-0.35 33.32,-1.07zm150.13 33.67c0,7.69 -1.31,22.09 -3.83,43.24 -2.57,21.15 -3.84,36.58 -3.84,46.37l-36.72 1.3c0,-4.2 1.56,-16.63 4.67,-37.38 3.15,-20.75 4.71,-35.41 4.71,-43.95 0,-9.08 -1.41,-15.38 -4.27,-18.87 -2.82,-3.49 -7.58,-5.23 -14.23,-5.23 -8.26,0 -16.27,5.19 -24.04,15.61 -7.77,10.37 -12.48,23.03 -14.09,37.96 -2.09,18.78 -3.64,35.64 -4.71,50.57l-35.99 1.3c1.7,-11.44 5.83,-44.31 12.39,-98.64 3.79,-33.27 5.69,-62.2 5.69,-86.83l39.15 -2.1c0,3.85 -1.8,17.17 -5.34,40.02 -3.55,22.85 -6.07,37.83 -7.63,44.98l1.99 0c11.12,-18.24 27.54,-27.37 49.25,-27.37 24.58,0 36.87,13.01 36.87,39.04zm160.48 17.84c0,21.28 -7.33,39.44 -22.1,54.42 -14.77,14.98 -33.71,22.45 -56.88,22.45 -16.13,0 -29.97,-5.41 -41.53,-16.32 -11.56,-10.87 -17.34,-25.22 -17.34,-43.15 0,-21.19 7.38,-39.17 22.2,-53.84 14.76,-14.67 33.8,-22 57.02,-22 16.22,0 30.07,5.28 41.48,15.79 11.46,10.51 17.15,24.73 17.15,42.66zm-35.99 2.86c0,-10.82 -2.52,-19.72 -7.57,-26.65 -5.1,-6.93 -12,-10.42 -20.74,-10.42 -11.17,0 -20.25,5.19 -27.25,15.61 -6.94,10.37 -10.44,21.82 -10.44,34.3 0,10.82 2.57,19.72 7.67,26.65 5.15,6.97 12.09,10.42 20.93,10.42 11.46,0 20.59,-5.14 27.3,-15.38 6.75,-10.28 10.1,-21.78 10.1,-34.52zm153 -57.64l-7.72 25.93c-9.96,-2.86 -20.79,-4.33 -32.54,-4.33 -14.81,0 -22.2,4.16 -22.2,12.47 0,5.5 6.95,10.82 20.89,15.96 24.67,9.17 37.01,21.64 37.01,37.47 0,28.39 -21.67,42.57 -65.04,42.57 -14.62,0 -27.2,-1.3 -37.69,-3.93l7.53 -25.8c10.83,3.49 21.81,5.23 33.03,5.23 20.2,0 30.31,-4.25 30.31,-12.83 0,-6.13 -6.94,-11.9 -20.79,-17.44 -11.56,-4.61 -20.11,-9.17 -25.6,-13.59 -7.72,-6.39 -11.56,-14.08 -11.56,-23.07 0,-13.86 5.49,-24.24 16.46,-31.03 10.93,-6.84 24.48,-10.24 40.61,-10.24 15.93,0 28.36,0.89 37.3,2.64zm142.56 29.2c0,26.03 -30.41,39.57 -91.22,40.6 0,11.54 2.33,20.17 7,25.89 4.66,5.72 12.78,8.59 24.33,8.59 15.15,0 31.43,-4.52 48.81,-13.5l-4.42 25.93c-14.13,9.08 -32.06,13.64 -53.77,13.64 -19.38,0 -33.66,-5.36 -42.94,-16.05 -9.23,-10.69 -13.84,-24.86 -13.84,-42.52 0,-22.76 7.72,-41.05 23.26,-54.82 15.5,-13.72 33.85,-20.61 55.13,-20.61 14.72,0 26.23,2.78 34.58,8.36 8.7,5.77 13.07,13.95 13.07,24.5zm-31.72 2.64c0,-8.49 -7.09,-12.7 -21.22,-12.7 -8.06,0 -15.69,2.73 -22.88,8.18 -7.24,5.46 -11.9,13.28 -14.08,23.52 38.81,-0.71 58.19,-7.06 58.19,-19zm320.46 -31.17c0,6.44 -9.67,27.63 -29.09,63.59 -19.38,35.95 -29.43,56.7 -30.07,62.29l-31.62 0c0,-5.32 -2.43,-19.27 -7.33,-41.85 -4.86,-22.58 -8.06,-38.59 -9.57,-48.02l-2.14 0c-3.64,9.7 -10.93,25.98 -21.95,48.83 -10.98,22.8 -16.71,36.49 -17.2,41.05l-31.57 0c0,-7.15 -4.76,-27.9 -14.33,-62.24 -9.52,-34.3 -14.28,-54.95 -14.28,-61.93l38.57 -1.7c0,8.19 2.09,24.15 6.26,47.85 4.18,23.74 6.26,38.94 6.26,45.65l1.99 0c0.73,-5.68 7.19,-21.15 19.38,-46.5 12.19,-25.31 18.31,-40.51 18.31,-45.56l31.86 0c0,5.94 2.62,21.24 7.91,45.92 5.25,24.64 7.87,40.07 7.87,46.15l1.85 0c0.48,-4.16 6.22,-18.69 17.15,-43.55 10.98,-24.82 16.46,-40.92 16.46,-48.25l35.26 -1.7zm142.89 36.26c0,7.69 -1.31,22.09 -3.83,43.24 -2.57,21.15 -3.84,36.58 -3.84,46.37l-36.72 1.3c0,-4.2 1.55,-16.63 4.66,-37.38 3.16,-20.75 4.71,-35.41 4.71,-43.95 0,-9.08 -1.41,-15.38 -4.28,-18.87 -2.82,-3.49 -7.58,-5.23 -14.23,-5.23 -8.26,0 -16.27,5.19 -24.04,15.61 -7.77,10.37 -12.48,23.03 -14.09,37.96 -2.09,18.78 -3.64,35.64 -4.71,50.57l-35.99 1.3c1.7,-11.44 5.83,-44.31 12.38,-98.64 3.79,-33.27 5.69,-62.2 5.69,-86.83l39.15 -2.1c0,3.85 -1.8,17.17 -5.34,40.02 -3.54,22.85 -6.07,37.83 -7.62,44.98l1.99 0c11.12,-18.24 27.54,-27.37 49.25,-27.37 24.57,0 36.86,13.01 36.86,39.04zm160.48 17.84c0,21.28 -7.33,39.44 -22.1,54.42 -14.76,14.98 -33.71,22.45 -56.87,22.45 -16.13,0 -29.97,-5.41 -41.53,-16.32 -11.56,-10.87 -17.34,-25.22 -17.34,-43.15 0,-21.19 7.39,-39.17 22.2,-53.84 14.77,-14.67 33.81,-22 57.02,-22 16.22,0 30.06,5.28 41.48,15.79 11.46,10.51 17.14,24.73 17.14,42.66zm-35.99 2.86c0,-10.82 -2.53,-19.72 -7.58,-26.65 -5.1,-6.93 -12,-10.42 -20.74,-10.42 -11.17,0 -20.25,5.19 -27.24,15.61 -6.95,10.37 -10.44,21.82 -10.44,34.3 0,10.82 2.57,19.72 7.67,26.65 5.15,6.97 12.09,10.42 20.93,10.42 11.46,0 20.59,-5.14 27.3,-15.38 6.75,-10.28 10.1,-21.78 10.1,-34.52zm166.35 -58.17c0.1,2.37 -0.97,11.35 -3.25,26.92 -2.28,15.61 -3.98,28.26 -5.1,37.92 -2.09,18.2 -3.83,38.9 -5.29,62.24l-36.28 1.3c1.89,-11.35 4.91,-32.51 8.98,-63.54 1.89,-16.59 2.82,-32.06 2.82,-46.5 0,-5.86 -0.19,-10.69 -0.54,-14.53l38.66 -3.8zm10.98 -39.44c0,6.84 -2.57,12.65 -7.68,17.48 -5.15,4.87 -11.41,7.29 -18.94,7.29 -5.78,0 -10.25,-1.65 -13.36,-4.92 -3.16,-3.26 -4.71,-7.33 -4.71,-12.25 0,-6.89 2.57,-12.7 7.67,-17.39 5.15,-4.74 11.46,-7.11 18.94,-7.11 12.05,0 18.07,5.63 18.07,16.9zm140.61 76.91c0,7.69 -1.26,22.09 -3.84,43.24 -2.57,21.15 -3.83,36.58 -3.83,46.37l-36.72 1.3c0,-4.2 1.56,-16.63 4.71,-37.38 3.11,-20.75 4.66,-35.41 4.66,-43.95 0,-9.08 -1.41,-15.38 -4.28,-18.87 -2.81,-3.49 -7.57,-5.23 -14.23,-5.23 -8.26,0 -16.27,5.19 -24.04,15.61 -7.77,10.37 -12.48,23.03 -14.09,37.96 -2.09,18.78 -3.64,35.64 -4.66,50.57l-35.75 1.3c6.65,-45.2 9.96,-75.79 9.96,-91.71 0,-9.17 -0.73,-20.35 -2.28,-33.54l35.31 -3.27c0.68,7.43 0.97,16.1 0.97,25.94l1.99 0c11.13,-18.24 27.54,-27.37 49.25,-27.37 24.58,0 36.87,13.01 36.87,39.04zm217.16 0c0,7.69 -1.26,22.09 -3.84,43.24 -2.57,21.15 -3.83,36.58 -3.83,46.37l-36.72 1.3c0,-4.2 1.56,-16.63 4.71,-37.38 3.11,-20.75 4.66,-35.41 4.66,-43.95 0,-9.08 -1.41,-15.38 -4.28,-18.87 -2.81,-3.49 -7.57,-5.23 -14.23,-5.23 -8.26,0 -16.27,5.19 -24.04,15.61 -7.77,10.37 -12.48,23.03 -14.09,37.96 -2.09,18.78 -3.64,35.64 -4.66,50.57l-35.75 1.3c6.65,-45.2 9.96,-75.79 9.96,-91.71 0,-9.17 -0.73,-20.35 -2.28,-33.54l35.31 -3.27c0.68,7.43 0.97,16.1 0.97,25.94l1.99 0c11.12,-18.24 27.54,-27.37 49.25,-27.37 24.58,0 36.87,13.01 36.87,39.04zm148.67 -7.74c0,26.03 -30.41,39.57 -91.22,40.6 0,11.54 2.33,20.17 7,25.89 4.66,5.72 12.78,8.59 24.33,8.59 15.15,0 31.43,-4.52 48.81,-13.5l-4.42 25.93c-14.13,9.08 -32.06,13.64 -53.76,13.64 -19.38,0 -33.66,-5.36 -42.94,-16.05 -9.23,-10.69 -13.84,-24.86 -13.84,-42.52 0,-22.76 7.72,-41.05 23.26,-54.82 15.5,-13.72 33.85,-20.61 55.13,-20.61 14.71,0 26.22,2.78 34.58,8.36 8.7,5.77 13.07,13.95 13.07,24.5zm-31.72 2.64c0,-8.49 -7.09,-12.7 -21.22,-12.7 -8.06,0 -15.69,2.73 -22.88,8.18 -7.24,5.46 -11.9,13.28 -14.09,23.52 38.81,-0.71 58.19,-7.06 58.19,-19zm172.04 -2.64c0,26.03 -30.41,39.57 -91.22,40.6 0,11.54 2.33,20.17 7,25.89 4.66,5.72 12.78,8.59 24.33,8.59 15.15,0 31.43,-4.52 48.81,-13.5l-4.42 25.93c-14.13,9.08 -32.06,13.64 -53.77,13.64 -19.38,0 -33.66,-5.36 -42.94,-16.05 -9.23,-10.69 -13.84,-24.86 -13.84,-42.52 0,-22.76 7.72,-41.05 23.26,-54.82 15.5,-13.72 33.85,-20.61 55.13,-20.61 14.72,0 26.22,2.78 34.58,8.36 8.7,5.77 13.07,13.95 13.07,24.5zm-31.72 2.64c0,-8.49 -7.09,-12.7 -21.22,-12.7 -8.06,0 -15.69,2.73 -22.88,8.18 -7.24,5.46 -11.9,13.28 -14.08,23.52 38.81,-0.71 58.19,-7.06 58.19,-19zm192.68 -90.55c0,2.28 -1.6,11.72 -4.81,28.31 -3.26,16.59 -6.07,36.22 -8.55,58.89 -2.48,22.67 -3.69,44 -3.69,63.98 0,11.81 0.34,23.12 1.12,33.94l-32.88 1.57c-1.12,-7.24 -1.7,-15.74 -1.7,-25.54l-1.85 0.13c-11.37,18.24 -27.88,27.37 -49.54,27.37 -14.04,0 -24.82,-4.61 -32.35,-13.81 -7.53,-9.21 -11.31,-21.51 -11.31,-36.89 0,-22.58 6.56,-41.9 19.72,-57.82 13.11,-15.96 30.5,-23.92 52.16,-23.92 12.78,0 22.69,2.91 29.72,8.67l1.99 0c1.8,-18.38 3.3,-39.57 4.57,-63.67l37.4 -1.21zm-43.81 86.08c-6.75,-3.94 -14.28,-5.91 -22.63,-5.91 -14.43,0 -25.21,5.06 -32.3,15.16 -7.14,10.06 -10.69,22 -10.69,35.81 0,21.91 7.68,32.87 23.07,32.87 9.18,0 17.73,-5.59 25.6,-16.81 7.87,-11.22 12.58,-23.43 14.09,-36.62l2.86 -24.5z"/>
  <g id="_1941665801200">
   <g style="clip-path:url(#id0)">
    <image x="2744.98" y="4413.91" width="3917.09" height="607.79" xlink:href="preloader_Images\preloader_ImgID1.png"/>
   </g>
  </g>
  <path class="fil0" d="M2762.23 4852.15l163.86 -23.25c6.87,35.02 27.15,52.52 60.85,52.52 26.67,0 47.12,-11.19 61.17,-33.72 14.22,-22.39 21.24,-53.24 21.24,-92.56 0,-4.45 -0.16,-10.19 -0.48,-17.22 -28.11,37.17 -69.47,55.67 -124.26,55.67 -57.65,0 -105.41,-17.07 -143.1,-51.23 -37.69,-34.3 -56.54,-77.92 -56.54,-130.87 0,-57.97 22.2,-105.47 66.6,-142.35 44.4,-36.88 103.97,-55.25 178.71,-55.25 85.93,0 150.93,25.54 194.85,76.77 43.92,51.08 65.8,118.53 65.8,202.33 0,92.27 -22.84,167.32 -68.36,225.43 -45.68,57.97 -113.55,86.96 -203.79,86.96 -59.09,0 -107.8,-13.63 -146.29,-40.89 -38.49,-27.26 -61.81,-64.72 -70.27,-112.36zm225.99 -180.8c18.85,0 35.46,-5.89 49.67,-17.8 14.22,-11.91 21.4,-28.84 21.4,-50.65 0,-22.24 -6.55,-39.75 -19.48,-52.52 -13.1,-12.91 -29.39,-19.37 -49.19,-19.37 -18.69,0 -34.5,6.03 -47.59,18.08 -13.26,12.06 -19.81,30.13 -19.81,54.24 0,21.24 6.07,37.89 18.37,49.94 12.14,12.06 27.79,18.08 46.63,18.08zm674.3 198.02l150.45 0 0 127.43 -491.59 0 0 -127.43 158.11 0 0 -273.65c-60.05,23.82 -107,37.88 -140.87,42.04l0 -129.15c90.88,-17.65 152.52,-49.22 184.94,-94.71l138.95 0 0 455.46zm203.63 -17.22l163.86 -23.25c6.87,35.02 27.15,52.52 60.85,52.52 26.67,0 47.11,-11.19 61.17,-33.72 14.21,-22.39 21.24,-53.24 21.24,-92.56 0,-4.45 -0.16,-10.19 -0.48,-17.22 -28.11,37.17 -69.48,55.67 -124.26,55.67 -57.66,0 -105.41,-17.07 -143.1,-51.23 -37.69,-34.3 -56.54,-77.92 -56.54,-130.87 0,-57.97 22.2,-105.47 66.6,-142.35 44.4,-36.88 103.97,-55.25 178.72,-55.25 85.93,0 150.93,25.54 194.85,76.77 43.92,51.08 65.8,118.53 65.8,202.33 0,92.27 -22.84,167.32 -68.35,225.43 -45.68,57.97 -113.56,86.96 -203.79,86.96 -59.09,0 -107.8,-13.63 -146.3,-40.89 -38.49,-27.26 -61.81,-64.72 -70.27,-112.36zm225.99 -180.8c18.84,0 35.45,-5.89 49.67,-17.8 14.21,-11.91 21.4,-28.84 21.4,-50.65 0,-22.24 -6.55,-39.75 -19.49,-52.52 -13.09,-12.91 -29.39,-19.37 -49.19,-19.37 -18.69,0 -34.5,6.03 -47.59,18.08 -13.26,12.06 -19.8,30.13 -19.8,54.24 0,21.24 6.07,37.89 18.37,49.94 12.14,12.06 27.79,18.08 46.64,18.08zm304.41 150.24l166.74 -18.51c10.86,52.23 41.85,78.35 92.95,78.35 23.32,0 42.16,-5.45 56.7,-16.5 14.53,-10.91 21.88,-25.69 21.88,-44.2 0,-12.34 -4,-23.25 -11.82,-32.57 -7.99,-9.47 -16.45,-16.07 -25.39,-19.8 -8.94,-3.88 -24.44,-5.74 -46.48,-5.74l-77.3 0 0 -119.68 65.32 0c34.98,0 57.34,-5.59 67.24,-16.79 10.06,-11.05 15.01,-22.67 15.01,-34.73 0,-15.07 -6.23,-27.55 -18.69,-37.59 -12.46,-10.04 -28.75,-15.07 -49.03,-15.07 -43.6,0 -70.27,21.81 -79.85,65.43l-154.28 -21.81c14.05,-53.95 43.76,-95.43 89.12,-124.7 45.35,-29.13 99.02,-43.77 160.99,-43.77 69.79,0 125.85,14.64 168.33,44.06 42.32,29.41 63.57,68.73 63.57,117.67 0,29.42 -8.94,55.1 -26.99,76.91 -17.89,21.81 -40.89,36.59 -68.67,44.2 77.14,20.95 115.79,66.01 115.79,134.89 0,54.96 -23.31,97.72 -69.95,128.14 -46.63,30.42 -107.17,45.63 -181.43,45.63 -149.01,0 -240.37,-61.27 -273.74,-183.81zm988.44 -136.9c69,31.28 103.49,78.64 103.49,141.63 0,57.11 -24.75,101.31 -74.26,132.45 -49.51,31.14 -114.67,46.63 -195.48,46.63 -80.98,0 -143.1,-14.78 -186.38,-44.2 -43.44,-29.41 -65.16,-67.87 -65.16,-115.51 0,-60.27 33.22,-103.6 99.5,-130.01 -52.87,-26.55 -79.38,-68.3 -79.38,-125.27 0,-50.08 21.72,-92.12 65.32,-125.85 43.44,-33.72 103.81,-50.65 180.79,-50.65 69,0 125.21,14.06 168.65,42.04 43.6,27.98 65.32,65.15 65.32,111.35 0,21.09 -4.95,40.61 -14.7,58.69 -9.9,18.08 -32.42,37.6 -67.72,58.69zm-119.3 -44.05c26.51,-11.77 39.77,-29.42 39.77,-52.95 0,-17.37 -7.35,-31.71 -21.88,-43.05 -14.7,-11.33 -35.3,-17.07 -62.13,-17.07 -19,0 -33.86,4.02 -44.56,12.06 -10.7,8.18 -16.13,18.08 -16.13,29.7 0.16,21.67 15.65,38.31 46.63,49.8l58.3 21.52zm-88 132.73c-29.87,16.22 -44.72,36.02 -44.72,59.55 0,17.36 8.3,32 24.91,43.77 16.61,11.76 40.25,17.65 70.91,17.65 24.76,0 43.76,-4.16 56.86,-12.34 13.26,-8.32 19.8,-18.94 19.8,-32.14 0,-21.81 -18.2,-39.17 -54.78,-52.23l-72.99 -24.25zm342.9 48.22l166.74 -18.51c10.86,52.23 41.85,78.35 92.95,78.35 23.32,0 42.16,-5.45 56.7,-16.5 14.54,-10.91 21.88,-25.69 21.88,-44.2 0,-12.34 -4,-23.25 -11.82,-32.57 -7.99,-9.47 -16.45,-16.07 -25.39,-19.8 -8.94,-3.88 -24.44,-5.74 -46.48,-5.74l-77.3 0 0 -119.68 65.32 0c34.98,0 57.34,-5.59 67.24,-16.79 10.06,-11.05 15.01,-22.67 15.01,-34.73 0,-15.07 -6.23,-27.55 -18.69,-37.59 -12.46,-10.04 -28.75,-15.07 -49.03,-15.07 -43.6,0 -70.27,21.81 -79.85,65.43l-154.28 -21.81c14.05,-53.95 43.76,-95.43 89.12,-124.7 45.35,-29.13 99.02,-43.77 160.99,-43.77 69.79,0 125.85,14.64 168.33,44.06 42.33,29.41 63.57,68.73 63.57,117.67 0,29.42 -8.94,55.1 -26.99,76.91 -17.89,21.81 -40.89,36.59 -68.67,44.2 77.14,20.95 115.79,66.01 115.79,134.89 0,54.96 -23.31,97.72 -69.95,128.14 -46.63,30.42 -107.17,45.63 -181.43,45.63 -149.01,0 -240.37,-61.27 -273.74,-183.81zm562.02 0l166.74 -18.51c10.86,52.23 41.85,78.35 92.95,78.35 23.32,0 42.17,-5.45 56.7,-16.5 14.54,-10.91 21.88,-25.69 21.88,-44.2 0,-12.34 -4,-23.25 -11.82,-32.57 -7.99,-9.47 -16.45,-16.07 -25.39,-19.8 -8.94,-3.88 -24.44,-5.74 -46.48,-5.74l-77.3 0 0 -119.68 65.32 0c34.98,0 57.34,-5.59 67.24,-16.79 10.06,-11.05 15.01,-22.67 15.01,-34.73 0,-15.07 -6.23,-27.55 -18.69,-37.59 -12.46,-10.04 -28.75,-15.07 -49.03,-15.07 -43.6,0 -70.27,21.81 -79.85,65.43l-154.28 -21.81c14.06,-53.95 43.76,-95.43 89.12,-124.7 45.36,-29.13 99.02,-43.77 160.99,-43.77 69.79,0 125.85,14.64 168.33,44.06 42.32,29.41 63.56,68.73 63.56,117.67 0,29.42 -8.94,55.1 -26.99,76.91 -17.89,21.81 -40.89,36.59 -68.67,44.2 77.14,20.95 115.79,66.01 115.79,134.89 0,54.96 -23.31,97.72 -69.95,128.14 -46.63,30.42 -107.17,45.63 -181.43,45.63 -149.01,0 -240.37,-61.27 -273.74,-183.81z"/>
  <g style="clip-path:url(#id1)">
   <image x="5466.67" y="3797.83" width="1119.2" height="595.19" xlink:href="preloader_Images\preloader_ImgID2.png"/>
  </g>
  <g id="_1941665798080">
   <g style="clip-path:url(#id2)">
    <image x="1225.56" y="5277.46" width="2777.39" height="33.8" xlink:href="preloader_Images\preloader_ImgID3.png"/>
   </g>
  </g>
  <g id="_1941665800288">
   <path class="fil1" d="M1283.54 3844.39c24.76,0 44.83,18.48 44.83,41.28 0,22.8 -20.07,41.28 -44.83,41.28 -24.76,0 -44.83,-18.48 -44.83,-41.28 0,-22.8 20.07,-41.28 44.83,-41.28z"/>
   <g style="clip-path:url(#id3)">
    <image x="1225.56" y="3706.72" width="1363" height="1570.74" xlink:href="preloader_Images\preloader_ImgID4.png"/>
   </g>
   <path class="fil2" d="M1279.41 3852c22.48,0 40.7,16.78 40.7,37.47 0,20.69 -18.22,37.47 -40.7,37.47 -22.48,0 -40.7,-16.78 -40.7,-37.47 0,-20.7 18.22,-37.47 40.7,-37.47z"/>
  </g>
 </g>
</svg>
