<?xml version="1.0" encoding="utf-8"?>
<!-- Generator: Adobe Illustrator 23.0.1, SVG Export Plug-In . SVG Version: 6.00 Build 0)  -->
<svg version="1.1" id="Layer_1" xmlns="http://www.w3.org/2000/svg" xmlns:xlink="http://www.w3.org/1999/xlink" x="0px" y="0px"
	 viewBox="0 0 1254.8 1274.2" style="enable-background:new 0 0 1254.8 1274.2;" xml:space="preserve">
<style type="text/css">
	.st0{fill:none;}
	.st1{fill:#FFFFFF;}
	.st2{fill:#F29221;}
	.st3{fill:none;stroke:#FFFFFF;stroke-miterlimit:10;}
	.st4{fill:#A51E22;}
	.st5{fill:#0D0D0D;}
	.st6{fill:none;stroke:#000000;stroke-miterlimit:10;}
	.st7{fill:#447786;}
	.st8{fill:#D8942D;}
	.st9{fill:#ED5923;}
	.st10{fill:#4A4747;}
	.st11{display:none;opacity:0.34;fill:url(#KEEN_RABBITS);}
	.st12{display:none;opacity:0.1;fill:url(#KEEN_RABBITS);}
	.st13{display:none;opacity:0.11;fill:url(#KEEN_RABBITS);}
</style>
<pattern  x="4285.5" y="673.5" width="463.1" height="722.7" patternUnits="userSpaceOnUse" id="KEEN_RABBITS" viewBox="231.6 -903.4 463.1 722.7" style="overflow:visible;">
	<g>
		<rect x="231.6" y="-903.4" class="st0" width="463.1" height="722.7"/>
		<text transform="matrix(0.8074 -0.59 0.59 0.8074 490.8183 -11.3023)" style="font-family:'MyriadPro-Regular'; font-size:56px;">KEEN RABBITS PVT LTD</text>
		<text transform="matrix(0.8074 -0.59 0.59 0.8074 27.6909 -11.3023)" style="font-family:'MyriadPro-Regular'; font-size:56px;">KEEN RABBITS PVT LTD</text>
		
			<text transform="matrix(0.8074 -0.59 0.59 0.8074 259.2543 -372.6568)" style="font-family:'MyriadPro-Regular'; font-size:56px;">KEEN RABBITS PVT LTD</text>
		
			<text transform="matrix(0.8074 -0.59 0.59 0.8074 490.8183 -734.0123)" style="font-family:'MyriadPro-Regular'; font-size:56px;">KEEN RABBITS PVT LTD</text>
		<text transform="matrix(0.8074 -0.59 0.59 0.8074 27.6909 -734.0123)" style="font-family:'MyriadPro-Regular'; font-size:56px;">KEEN RABBITS PVT LTD</text>
	</g>
</pattern>
<g>
	<g>
		<g>
			<g>
				<path class="st7" d="M0,40.1h384.2v1234.1H0V40.1z"/>
			</g>
		</g>
		<g>
			<g>
				<path class="st8" d="M436.2,105.8h384.2v1168.4H436.2V105.8z"/>
			</g>
		</g>
		<g>
			<g>
				<path class="st9" d="M870.6,40.1h384.2v1234.1H870.6V40.1z"/>
			</g>
		</g>
	</g>
	<path class="st5" d="M637.2,757.4c-41,0-81.9-0.4-122.9,0.2c-10.6,0.2-15.6-1.6-16.9-13.7c-9.1-79.5-19.1-159-28.8-238.4
		c-2.3-18.9-4.9-37.8-6.7-56.8c-2.7-28.8,7.9-43.6,36.1-48.6c70-12.5,140.6-12.4,211.2-8c22.3,1.4,44.5,5,66.7,8.3
		c30.5,4.6,43.4,20.8,39.6,50.8c-12.3,96.7-25.2,193.2-37.4,289.9c-1.6,12.9-5.9,17.1-19.6,16.7
		C718.1,756.6,677.6,757.4,637.2,757.4z"/>
	<path class="st5" d="M628.8,782.8c76.9,0,153.9-0.3,230.8,0.3c13.1,0.1,16.6-3.5,17.5-16.6c2.4-34.7,6.6-69.2,11-103.7
		c1.2-9.2-1-12.1-10-12.1c-16.8,0-33.7-1-50.5-0.8c-18.3,0.1-15-13-14.9-23.7c0.1-11.9,5.4-19.6,18.9-16.5
		c31.4,7.3,63.2,8.7,95.2,8.7c9.7,0,18.6,1.8,20.2,13.2c1.5,10.9-4.6,16.9-15.2,18c-6.8,0.7-7.6,4.9-8.3,10.3
		c-7.3,58.9-18.2,117.4-23.6,176.6c-1.9,21.1-7.5,41-28.1,52.3c-7.1,3.9-6.1,9.8-5.1,16c8.1,48.6,16.3,97.2,24.4,145.7
		c1.2,7.1,7.1,15.4-6.4,17.9c-10.8,2-16.5-0.6-19.4-12c-11.4-44.8-24.3-89.3-34.9-134.3c-3.3-14-8.7-17.4-22.2-16.9
		c-31.8,1.1-31.5,0.4-27,32.3c3.2,22.2,5.6,44.5,8.1,66.8c0.7,6.5,5.3,14.7-7,16.7c-11.1,1.8-15.1-3.7-16.8-13.2
		c-5.6-30.8-11.8-61.5-16.9-92.4c-1.3-7.8-3.8-10.2-11.5-10.1c-69.6,0.3-139.3,0.5-208.9,0c-10.4-0.1-10.3,6.3-11.6,12.5
		c-5.9,29-11.6,58.1-17.4,87.1c-0.4,2.2-0.5,4.5-1,6.6c-2,8.1-7.5,9.9-15.2,9.3c-9.8-0.7-8.3-7.2-7.6-13.3c3.5-30,6.8-60.1,11-90
		c1.3-9.3,0.2-12.4-10.3-12.5c-38.7-0.2-38.9-0.7-49.3,36.4c-9.8,34.9-19,70-28.5,105.1c-1.2,4.3-2.5,8.6-3.8,12.8
		c-3,10-10.9,10.2-18.9,8.8c-9.9-1.7-7.7-9-6.5-15.8c8.7-49.6,17.1-99.3,25.9-148.9c1-5.8,2.9-10.4-4.1-14
		c-21.6-11.2-26.7-31.9-29.4-53.5c-7.3-57.2-14-114.5-21.3-171.8c-0.8-5.9,0.5-13.7-9.8-14.7c-10.3-1-14-8.8-12.9-18.1
		c1-9.4,8-13.2,16.7-13.4c13.5-0.3,27,0.7,40.4,0.1c21.3-1,42.5-3,63.3-8.3c15-3.8,18.6,4.7,19.5,17.1c0.9,12.1,1.6,23.1-15.5,23.1
		c-19.1,0-38.2,0.9-57.3,0.7c-7.7-0.1-11.2,1.4-10.3,10.2c3.8,38,7.1,75.9,10.3,114c1,11.6,9.4,7.4,15.1,7.4
		c76.4,0.2,152.7,0.2,229.1,0.2C628.8,782.5,628.8,782.7,628.8,782.8z"/>
	<path class="st5" d="M900.9,88.6c4.1,19,6.8,38.2,8.2,57.5c-52.9-15.8-106.8-17.9-161.3-12.7c-3.9,0.4-6.5-0.4-8.7-3.2
		c11.3-46.2,36.2-81,79.1-104.1c9.9-5.3,20.4-12.4,30.3-19.1c3.5,4.1,10.9,9,10.9,11.3c-0.2,25.9,22.9,27.1,37.6,38.9
		c-1.3-41.1-14.8-54.5-48.9-50c12.4-10.6,26.5-9.3,39.2,3.5c10.4,10.5,16,23.5,15.2,37.9c-0.6,10.5,3.4,16.6,11,22.5
		c42.4,33.1,84.3,66.8,126.9,99.5c8,6.1,4.9,13.1,4.9,19.6c0.3,148.8,0.3,297.6,0.2,446.4c0,108.9-0.2,217.8-0.2,326.8
		c0,7.3,0.9,14.6,0.5,21.9c-0.5,8.7,2.8,11.9,11.6,11.9c11.7,0,23.3,2.4,34.6,5.8c3.8,1.1,8.4,1.9,8.3,6.4c0,4.7-5.2,5.8-8.7,6.8
		c-14.7,4.3-29.8,4.8-45,4.9c-23,0.2-46,1.1-68.7-4.3c-4.5-1.1-10.9-1.8-10.6-8.5c0.3-6,6.7-5.8,10.4-6.7c11.9-3,24.1-5.8,36.5-4.6
		c11.4,1.1,13.6-3.6,13.6-14.3c-0.4-159.5-0.3-318.9-0.2-478.4c0-101.1-0.1-202.1,0.5-303.2c0.1-12.2-2.6-20.5-13-28
		c-37.9-27.7-71.4-61.2-110.7-87.1c-1.3-0.5-2.6-1-3.9-1.5C900.8,85.7,900.8,87.1,900.9,88.6z"/>
	<path class="st2" d="M739.1,130.2c2.2,2.9,4.8,3.6,8.7,3.2c54.5-5.2,108.4-3.2,161.3,12.7c-1.5,8.7-8.6,8.8-14.9,9.5
		c-47.2,5-93.9,1.2-140.1-9.3C745.9,144.4,737.2,142,739.1,130.2z"/>
</g>
<rect x="4.9" y="0" class="st11" width="1254.8" height="1274.2"/>
</svg>
