<?xml version="1.0" encoding="utf-8"?>
<!-- Generator: Adobe Illustrator 23.0.1, SVG Export Plug-In . SVG Version: 6.00 Build 0)  -->
<svg version="1.1" id="Layer_1" xmlns="http://www.w3.org/2000/svg" xmlns:xlink="http://www.w3.org/1999/xlink" x="0px" y="0px"
	 viewBox="0 0 1277.7 663.3" style="enable-background:new 0 0 1277.7 663.3;" xml:space="preserve">
<style type="text/css">
	.st0{fill:none;}
	.st1{fill:#FFFFFF;}
	.st2{fill:#F29221;}
	.st3{fill:none;stroke:#FFFFFF;stroke-miterlimit:10;}
	.st4{fill:#A51E22;}
	.st5{fill:#0D0D0D;}
	.st6{fill:none;stroke:#000000;stroke-miterlimit:10;}
	.st7{fill:#447786;}
	.st8{fill:#D8942D;}
	.st9{fill:#ED5923;}
	.st10{fill:#4A4747;}
	.st11{display:none;opacity:0.34;fill:url(#KEEN_RABBITS);}
	.st12{display:none;opacity:0.1;fill:url(#KEEN_RABBITS);}
	.st13{display:none;opacity:0.11;fill:url(#KEEN_RABBITS);}
</style>
<pattern  x="-214" y="1556.8" width="463.1" height="722.7" patternUnits="userSpaceOnUse" id="KEEN_RABBITS" viewBox="231.6 -903.4 463.1 722.7" style="overflow:visible;">
	<g>
		<rect x="231.6" y="-903.4" class="st0" width="463.1" height="722.7"/>
		<text transform="matrix(0.8074 -0.59 0.59 0.8074 490.8183 -11.3023)" style="font-family:'MyriadPro-Regular'; font-size:56px;">KEEN RABBITS PVT LTD</text>
		<text transform="matrix(0.8074 -0.59 0.59 0.8074 27.6909 -11.3023)" style="font-family:'MyriadPro-Regular'; font-size:56px;">KEEN RABBITS PVT LTD</text>
		
			<text transform="matrix(0.8074 -0.59 0.59 0.8074 259.2543 -372.6568)" style="font-family:'MyriadPro-Regular'; font-size:56px;">KEEN RABBITS PVT LTD</text>
		
			<text transform="matrix(0.8074 -0.59 0.59 0.8074 490.8183 -734.0123)" style="font-family:'MyriadPro-Regular'; font-size:56px;">KEEN RABBITS PVT LTD</text>
		<text transform="matrix(0.8074 -0.59 0.59 0.8074 27.6909 -734.0123)" style="font-family:'MyriadPro-Regular'; font-size:56px;">KEEN RABBITS PVT LTD</text>
	</g>
</pattern>
<g>
	<g>
		<path class="st5" d="M490.3,338.4c-29.1-53.1-99.1-64.2-140.8-22.1c-4.6,4.6-8.3,10.1-13.6,16.6V222.9c0-24.2,0-23.6-24.6-24.7
			c-10.1-0.4-12.4,2.3-12.4,12.2c0.4,91.5,0.1,183.1,0.1,274.6c0,26.3,0,26.2,26.6,24.4c5.7-0.4,8-1.9,7.7-7.9
			c-0.5-9.6-0.1-19.2-0.1-32.3c9.2,13.1,15.9,23.9,26.4,31.3c35.4,25,91.1,15.5,119.7-20.6C509.2,441.9,513.9,381.5,490.3,338.4z
			 M452.7,454.8c-22.9,45-80.4,40.7-102.7,4.6c-21.9-35.5-22.3-74-2.4-110.6c22.3-40.8,80.2-40.3,104-0.2
			c8.8,14.9,12.8,31.5,12.8,54C464.8,421,461.1,438.4,452.7,454.8z"/>
		<path class="st5" d="M102,409.7c23.3,0.2,46.7,0.1,70,0.1v-0.1c23.3,0,46.7-0.3,70,0.2c8.1,0.2,10.7-2.5,9.8-10.3
			c-0.9-7.8-0.7-15.8-1.6-23.6c-5-42.1-30.8-73.1-67.8-82.2c-42.2-10.3-83.2,5.5-107.2,41.1c-11.2,16.6-16.6,35-18.7,54.7
			c-6.3,58.8,21.7,116.2,90.2,123.9c38,4.2,71.7-5.6,94.7-39.2c2-3,8.1-8.3,0.8-10.6c-6.8-2.1-12.1-16-21.5-4.1
			c-8.1,10.2-17.5,19.2-30,22.9c-49.1,14.9-90.9-11.2-97-65.1C92.9,410.4,96.2,409.6,102,409.7z M95.7,374.3
			c7.8-41.8,41.1-65,78.8-54.2c22.5,6.4,41.7,35.7,39.1,58.6c-0.7,6.6-5,4.4-8.2,4.5c-17.3,0.2-34.6,0.1-51.9,0.1c0,0,0,0,0,0
			c-16.9,0-33.8-0.3-50.7,0.2C95.3,383.6,94.4,381.4,95.7,374.3z"/>
		<path class="st5" d="M646.4,290.9c62.8,0.1,107.4,46.4,107.2,111.5c-0.2,64.1-45.5,111.6-106.4,111.7
			c-63,0.1-108.1-46.2-107.9-110.6C539.5,337,583.4,290.8,646.4,290.9z M713.1,398.8c0-18-4-34.6-12.8-49.8
			c-24.2-41.8-82.8-43-106.8-1.2c-20.2,35.2-19.3,72.2-0.9,108c11,21.4,30.3,32,54.6,31.6c24.8-0.4,42.7-12.2,54.3-34.2
			C709.9,437.1,713.4,420,713.1,398.8z"/>
		<path class="st5" d="M840.8,334.5c11.4-20.9,27.7-36.1,50.7-41.1c48.5-10.5,93.5,7.4,96.6,75.2c2,44.3,0.3,88.8,0.5,133.2
			c0,5.1-1.4,7.1-6.9,7.6c-31.7,3-31.6,3.2-31.5-28.5c0.1-35,0.3-70-0.1-105c-0.3-29.9-15.4-49.8-39.6-53.6
			c-35.9-5.6-65.8,18.4-68.6,55.8c-2.9,39.1-1.3,78.3-1,117.4c0.1,11.5-3.2,14.4-14.4,14c-23.3-0.8-23.3-0.1-23.3-23.2
			c0-59.8,0.2-119.7-0.1-179.5c0-7.9,2.2-10,10-9.9c25.4,0.3,25.3,0,25.1,25.2C838.2,326,837,330.3,840.8,334.5z"/>
		<path class="st5" d="M1230.4,297.1c-11.7,28.6-22.7,55.6-33.8,82.5c-22.4,54.4-45,108.7-67.4,163.2c-3.9,9.5-9,18.1-15.1,26.3
			c-14.5,19.5-34.4,25.4-57.8,22.6c-3.9-0.5-5.2-1.9-5.1-5.6c0.4-6.8,0.9-13.5,0.8-20.3c-0.1-4.7,2.5-4.8,5.7-4.2
			c23.8,4.5,36.5-8.4,44.9-28.4c3.2-7.6,6.4-15.2,10-22.6c2.2-4.4,0.6-7.7-1-11.6c-26.5-63.6-52.7-127.2-79.4-190.7
			c-4-9.6-2.7-12.4,7.7-11.3c9.7,1,21.9-2.6,28.5,2.1c6.6,4.7,7.6,17.2,11.1,26.2c17.6,45.8,35.3,91.6,53.4,138.8
			c4.9-13.3,9.5-25.7,14.1-38.2c14.9-40.4,30-80.7,44.6-121.2c2.2-6.2,5-8.1,11.3-7.7C1211.6,297.5,1220.2,297.1,1230.4,297.1z"/>
		<path class="st2" d="M713.1,398.8c0.3,21.3-3.2,38.3-11.6,54.4c-11.5,22-29.5,33.8-54.3,34.2c-24.3,0.4-43.6-10.2-54.6-31.6
			c-18.4-35.8-19.3-72.8,0.9-108c24-41.8,82.6-40.5,106.8,1.2C709,364.2,713,380.7,713.1,398.8z"/>
	</g>
	<g>
		<path class="st5" d="M40.4,648.6c-2,1-6.1,2-11.3,2c-12,0-21.1-7.6-21.1-21.6c0-13.4,9.1-22.4,22.3-22.4c5.3,0,8.7,1.1,10.1,1.9
			l-1.3,4.5c-2.1-1-5.1-1.8-8.6-1.8c-10,0-16.6,6.4-16.6,17.6c0,10.4,6,17.2,16.4,17.2c3.4,0,6.8-0.7,9-1.8L40.4,648.6z"/>
		<path class="st5" d="M58.2,629c0-3.6-0.1-6.7-0.3-9.6h4.9l0.2,6h0.3c1.4-4.1,4.7-6.7,8.5-6.7c0.6,0,1.1,0.1,1.6,0.2v5.3
			c-0.6-0.1-1.1-0.2-1.9-0.2c-3.9,0-6.7,3-7.5,7.2c-0.1,0.8-0.3,1.6-0.3,2.6V650h-5.5V629z"/>
		<path class="st5" d="M106.8,650l-0.4-3.9h-0.2c-1.7,2.4-5,4.6-9.4,4.6c-6.2,0-9.4-4.4-9.4-8.8c0-7.4,6.6-11.5,18.4-11.4v-0.6
			c0-2.5-0.7-7.1-7-7.1c-2.8,0-5.8,0.9-8,2.3l-1.3-3.7c2.5-1.6,6.2-2.7,10.1-2.7c9.4,0,11.6,6.4,11.6,12.5v11.5
			c0,2.7,0.1,5.3,0.5,7.3H106.8z M106,634.4c-6.1-0.1-13,0.9-13,6.9c0,3.6,2.4,5.3,5.3,5.3c4,0,6.5-2.5,7.4-5.1
			c0.2-0.6,0.3-1.2,0.3-1.8V634.4z"/>
		<path class="st5" d="M132.2,650v-26.4h-4.3v-4.2h4.3v-1.5c0-4.3,0.9-8.2,3.5-10.7c2.1-2,4.9-2.8,7.5-2.8c2,0,3.7,0.4,4.7,0.9
			l-0.8,4.3c-0.8-0.4-2-0.7-3.5-0.7c-4.7,0-5.9,4.2-5.9,8.9v1.6h7.4v4.2h-7.4V650H132.2z"/>
		<path class="st5" d="M168.7,610.6v8.8h8v4.2h-8v16.5c0,3.8,1.1,5.9,4.2,5.9c1.5,0,2.5-0.2,3.2-0.4l0.3,4.2
			c-1.1,0.4-2.8,0.8-4.9,0.8c-2.6,0-4.7-0.8-6-2.3c-1.6-1.6-2.2-4.4-2.2-8v-16.7h-4.7v-4.2h4.7v-7.3L168.7,610.6z"/>
		<path class="st5" d="M200.5,610.8c0.1,1.9-1.3,3.4-3.5,3.4c-2,0-3.4-1.5-3.4-3.4c0-2,1.5-3.5,3.5-3.5
			C199.1,607.3,200.5,608.8,200.5,610.8z M194.3,650v-30.6h5.6V650H194.3z"/>
		<path class="st5" d="M220.3,627.7c0-3.2-0.1-5.8-0.3-8.3h4.9l0.3,5.1h0.1c1.5-2.9,5.1-5.8,10.1-5.8c4.2,0,10.8,2.5,10.8,13V650
			h-5.6v-17.7c0-4.9-1.8-9.1-7.1-9.1c-3.7,0-6.5,2.6-7.5,5.7c-0.3,0.7-0.4,1.6-0.4,2.6V650h-5.6V627.7z"/>
		<path class="st5" d="M293.1,619.4c-0.1,2.2-0.3,4.7-0.3,8.4v17.8c0,7-1.4,11.3-4.4,14c-3,2.8-7.3,3.7-11.1,3.7
			c-3.7,0-7.7-0.9-10.2-2.5l1.4-4.2c2,1.3,5.2,2.4,9,2.4c5.7,0,9.9-3,9.9-10.7v-3.4h-0.1c-1.7,2.8-5,5.1-9.7,5.1
			c-7.6,0-13-6.5-13-14.9c0-10.4,6.8-16.3,13.8-16.3c5.3,0,8.2,2.8,9.6,5.3h0.1l0.3-4.6H293.1z M287.4,631.5c0-0.9-0.1-1.8-0.3-2.5
			c-1-3.2-3.7-5.9-7.8-5.9c-5.3,0-9.1,4.5-9.1,11.6c0,6,3,11,9.1,11c3.4,0,6.5-2.2,7.7-5.7c0.3-0.9,0.4-2,0.4-3V631.5z"/>
		<path class="st5" d="M364.5,605.1v37c0,2.7,0.1,5.8,0.3,7.9h-5l-0.3-5.3h-0.1c-1.7,3.4-5.4,6-10.4,6c-7.4,0-13.1-6.3-13.1-15.6
			c-0.1-10.2,6.3-16.5,13.7-16.5c4.7,0,7.8,2.2,9.2,4.7h0.1v-18.3H364.5z M358.9,631.9c0-0.7-0.1-1.6-0.3-2.3
			c-0.8-3.5-3.9-6.5-8-6.5c-5.8,0-9.2,5.1-9.2,11.8c0,6.2,3,11.3,9.1,11.3c3.7,0,7.2-2.5,8.2-6.6c0.2-0.8,0.3-1.5,0.3-2.4V631.9z"/>
		<path class="st5" d="M385,629c0-3.6-0.1-6.7-0.3-9.6h4.9l0.2,6h0.3c1.4-4.1,4.7-6.7,8.5-6.7c0.6,0,1.1,0.1,1.6,0.2v5.3
			c-0.6-0.1-1.1-0.2-1.9-0.2c-3.9,0-6.7,3-7.5,7.2c-0.1,0.8-0.3,1.6-0.3,2.6V650H385V629z"/>
		<path class="st5" d="M419.4,635.7c0.1,7.5,4.9,10.6,10.5,10.6c4,0,6.4-0.7,8.5-1.6l0.9,4c-2,0.9-5.3,1.9-10.2,1.9
			c-9.4,0-15.1-6.2-15.1-15.4c0-9.2,5.4-16.5,14.4-16.5c10,0,12.7,8.8,12.7,14.4c0,1.1-0.1,2-0.2,2.6H419.4z M435.8,631.7
			c0.1-3.5-1.5-9.1-7.7-9.1c-5.6,0-8.1,5.2-8.5,9.1H435.8z"/>
		<path class="st5" d="M476.3,650l-0.4-3.9h-0.2c-1.7,2.4-5,4.6-9.4,4.6c-6.2,0-9.4-4.4-9.4-8.8c0-7.4,6.6-11.5,18.4-11.4v-0.6
			c0-2.5-0.7-7.1-7-7.1c-2.8,0-5.8,0.9-8,2.3l-1.3-3.7c2.5-1.6,6.2-2.7,10.1-2.7c9.4,0,11.6,6.4,11.6,12.5v11.5
			c0,2.7,0.1,5.3,0.5,7.3H476.3z M475.5,634.4c-6.1-0.1-13,0.9-13,6.9c0,3.6,2.4,5.3,5.3,5.3c4,0,6.5-2.5,7.4-5.1
			c0.2-0.6,0.3-1.2,0.3-1.8V634.4z"/>
		<path class="st5" d="M501.1,627.7c0-3.2-0.1-5.8-0.3-8.3h4.9l0.3,4.9h0.2c1.7-2.9,4.6-5.6,9.6-5.6c4.2,0,7.3,2.5,8.7,6.1h0.1
			c0.9-1.7,2.2-3,3.4-4c1.8-1.4,3.9-2.2,6.8-2.2c4.1,0,10.1,2.7,10.1,13.3v18h-5.4v-17.3c0-5.9-2.2-9.4-6.6-9.4
			c-3.2,0-5.6,2.3-6.6,5.1c-0.3,0.8-0.4,1.8-0.4,2.8V650h-5.4v-18.4c0-4.9-2.2-8.4-6.4-8.4c-3.5,0-6,2.8-6.9,5.6
			c-0.3,0.8-0.4,1.8-0.4,2.7V650h-5.4V627.7z"/>
		<path class="st5" d="M564.4,644.3c1.6,1.1,4.6,2.2,7.3,2.2c4.1,0,5.9-2,5.9-4.6c0-2.7-1.6-4.1-5.7-5.6c-5.5-2-8.1-5-8.1-8.7
			c0-4.9,4-9,10.6-9c3.1,0,5.8,0.9,7.5,1.9l-1.4,4.1c-1.2-0.8-3.4-1.8-6.3-1.8c-3.3,0-5.1,1.9-5.1,4.2c0,2.5,1.8,3.7,5.8,5.2
			c5.3,2,8,4.7,8,9.2c0,5.4-4.2,9.2-11.5,9.2c-3.4,0-6.5-0.8-8.6-2.1L564.4,644.3z"/>
		<path class="st5" d="M597.2,657.8c1.4-3.7,3.1-10.5,3.8-15.1l6.2-0.6c-1.5,5.4-4.2,12.4-6,15.4L597.2,657.8z"/>
		<path class="st5" d="M649.8,627.7c0-3.2-0.1-5.8-0.3-8.3h4.9l0.3,4.9h0.2c1.7-2.9,4.6-5.6,9.6-5.6c4.2,0,7.3,2.5,8.7,6.1h0.1
			c0.9-1.7,2.2-3,3.4-4c1.8-1.4,3.9-2.2,6.8-2.2c4.1,0,10.1,2.7,10.1,13.3v18h-5.4v-17.3c0-5.9-2.2-9.4-6.6-9.4
			c-3.2,0-5.6,2.3-6.6,5.1c-0.3,0.8-0.4,1.8-0.4,2.8V650H669v-18.4c0-4.9-2.2-8.4-6.4-8.4c-3.5,0-6,2.8-6.9,5.6
			c-0.3,0.8-0.4,1.8-0.4,2.7V650h-5.4V627.7z"/>
		<path class="st5" d="M730.8,650l-0.4-3.9h-0.2c-1.7,2.4-5,4.6-9.4,4.6c-6.2,0-9.4-4.4-9.4-8.8c0-7.4,6.6-11.5,18.4-11.4v-0.6
			c0-2.5-0.7-7.1-7-7.1c-2.8,0-5.8,0.9-8,2.3l-1.3-3.7c2.5-1.6,6.2-2.7,10.1-2.7c9.4,0,11.6,6.4,11.6,12.5v11.5
			c0,2.7,0.1,5.3,0.5,7.3H730.8z M730,634.4c-6.1-0.1-13,0.9-13,6.9c0,3.6,2.4,5.3,5.3,5.3c4,0,6.5-2.5,7.4-5.1
			c0.2-0.6,0.3-1.2,0.3-1.8V634.4z"/>
		<path class="st5" d="M761.1,633.4h0.1c0.8-1.1,1.8-2.4,2.7-3.5l9-10.6h6.7L767.9,632l13.5,18h-6.8L764,635.3l-2.8,3.2V650h-5.5
			v-44.9h5.5V633.4z"/>
		<path class="st5" d="M803.9,610.8c0.1,1.9-1.3,3.4-3.5,3.4c-2,0-3.4-1.5-3.4-3.4c0-2,1.5-3.5,3.5-3.5
			C802.5,607.3,803.9,608.8,803.9,610.8z M797.7,650v-30.6h5.6V650H797.7z"/>
		<path class="st5" d="M823.7,627.7c0-3.2-0.1-5.8-0.3-8.3h4.9l0.3,5.1h0.1c1.5-2.9,5.1-5.8,10.1-5.8c4.2,0,10.8,2.5,10.8,13V650
			h-5.6v-17.7c0-4.9-1.8-9.1-7.1-9.1c-3.7,0-6.5,2.6-7.5,5.7c-0.3,0.7-0.4,1.6-0.4,2.6V650h-5.6V627.7z"/>
		<path class="st5" d="M896.5,619.4c-0.1,2.2-0.3,4.7-0.3,8.4v17.8c0,7-1.4,11.3-4.4,14c-3,2.8-7.3,3.7-11.1,3.7
			c-3.7,0-7.7-0.9-10.2-2.5l1.4-4.2c2,1.3,5.2,2.4,9,2.4c5.7,0,9.9-3,9.9-10.7v-3.4h-0.1c-1.7,2.8-5,5.1-9.7,5.1
			c-7.6,0-13-6.5-13-14.9c0-10.4,6.8-16.3,13.8-16.3c5.3,0,8.2,2.8,9.6,5.3h0.1l0.3-4.6H896.5z M890.8,631.5c0-0.9-0.1-1.8-0.3-2.5
			c-1-3.2-3.7-5.9-7.8-5.9c-5.3,0-9.1,4.5-9.1,11.6c0,6,3,11,9.1,11c3.4,0,6.5-2.2,7.7-5.7c0.3-0.9,0.4-2,0.4-3V631.5z"/>
		<path class="st5" d="M941.5,627.7c0-3.2-0.1-5.8-0.3-8.3h4.9l0.3,4.9h0.2c1.7-2.9,4.6-5.6,9.6-5.6c4.2,0,7.3,2.5,8.7,6.1h0.1
			c0.9-1.7,2.2-3,3.4-4c1.8-1.4,3.9-2.2,6.8-2.2c4.1,0,10.1,2.7,10.1,13.3v18h-5.4v-17.3c0-5.9-2.2-9.4-6.6-9.4
			c-3.2,0-5.6,2.3-6.6,5.1c-0.3,0.8-0.4,1.8-0.4,2.8V650h-5.4v-18.4c0-4.9-2.2-8.4-6.4-8.4c-3.5,0-6,2.8-6.9,5.6
			c-0.3,0.8-0.4,1.8-0.4,2.7V650h-5.4V627.7z"/>
		<path class="st5" d="M1008.6,635.7c0.1,7.5,4.9,10.6,10.5,10.6c4,0,6.4-0.7,8.5-1.6l0.9,4c-2,0.9-5.3,1.9-10.2,1.9
			c-9.4,0-15.1-6.2-15.1-15.4c0-9.2,5.4-16.5,14.4-16.5c10,0,12.7,8.8,12.7,14.4c0,1.1-0.1,2-0.2,2.6H1008.6z M1024.9,631.7
			c0.1-3.5-1.5-9.1-7.7-9.1c-5.6,0-8.1,5.2-8.5,9.1H1024.9z"/>
		<path class="st5" d="M1048.5,627.7c0-3.2-0.1-5.8-0.3-8.3h4.9l0.3,4.9h0.2c1.7-2.9,4.6-5.6,9.6-5.6c4.2,0,7.3,2.5,8.7,6.1h0.1
			c0.9-1.7,2.2-3,3.4-4c1.8-1.4,3.9-2.2,6.8-2.2c4.1,0,10.1,2.7,10.1,13.3v18h-5.4v-17.3c0-5.9-2.2-9.4-6.6-9.4
			c-3.2,0-5.6,2.3-6.6,5.1c-0.3,0.8-0.4,1.8-0.4,2.8V650h-5.4v-18.4c0-4.9-2.2-8.4-6.4-8.4c-3.5,0-6,2.8-6.9,5.6
			c-0.3,0.8-0.4,1.8-0.4,2.7V650h-5.4V627.7z"/>
		<path class="st5" d="M1140.3,634.5c0,11.3-7.8,16.3-15.3,16.3c-8.3,0-14.7-6.1-14.7-15.8c0-10.3,6.7-16.3,15.2-16.3
			C1134.3,618.7,1140.3,625.1,1140.3,634.5z M1116,634.8c0,6.7,3.9,11.8,9.3,11.8c5.3,0,9.3-5,9.3-11.9c0-5.2-2.6-11.8-9.2-11.8
			C1118.8,622.9,1116,629,1116,634.8z"/>
		<path class="st5" d="M1158.5,629c0-3.6-0.1-6.7-0.3-9.6h4.9l0.2,6h0.3c1.4-4.1,4.7-6.7,8.5-6.7c0.6,0,1.1,0.1,1.6,0.2v5.3
			c-0.6-0.1-1.1-0.2-1.9-0.2c-3.9,0-6.7,3-7.5,7.2c-0.1,0.8-0.3,1.6-0.3,2.6V650h-5.5V629z"/>
		<path class="st5" d="M1197,610.8c0.1,1.9-1.3,3.4-3.5,3.4c-2,0-3.4-1.5-3.4-3.4c0-2,1.5-3.5,3.5-3.5
			C1195.6,607.3,1197,608.8,1197,610.8z M1190.8,650v-30.6h5.6V650H1190.8z"/>
		<path class="st5" d="M1219.9,635.7c0.1,7.5,4.9,10.6,10.5,10.6c4,0,6.4-0.7,8.5-1.6l0.9,4c-2,0.9-5.3,1.9-10.2,1.9
			c-9.4,0-15.1-6.2-15.1-15.4c0-9.2,5.4-16.5,14.4-16.5c10,0,12.7,8.8,12.7,14.4c0,1.1-0.1,2-0.2,2.6H1219.9z M1236.3,631.7
			c0.1-3.5-1.5-9.1-7.7-9.1c-5.6,0-8.1,5.2-8.5,9.1H1236.3z"/>
		<path class="st5" d="M1259.1,644.3c1.6,1.1,4.6,2.2,7.3,2.2c4.1,0,5.9-2,5.9-4.6c0-2.7-1.6-4.1-5.7-5.6c-5.5-2-8.1-5-8.1-8.7
			c0-4.9,4-9,10.6-9c3.1,0,5.8,0.9,7.5,1.9l-1.4,4.1c-1.2-0.8-3.4-1.8-6.3-1.8c-3.3,0-5.1,1.9-5.1,4.2c0,2.5,1.8,3.7,5.8,5.2
			c5.3,2,8,4.7,8,9.2c0,5.4-4.2,9.2-11.5,9.2c-3.4,0-6.5-0.8-8.6-2.1L1259.1,644.3z"/>
	</g>
	<line class="st6" x1="85.8" y1="572.3" x2="1002.3" y2="572.3"/>
	<g>
		<g>
			<g transform="translate(87.328124, 92.272787)">
				<g>
					<path class="st4" d="M142.6,42.2c0.5,1.3,0.7,2.9,0.6,4.7c-0.1,1.9-1.1,2.7-3.2,2.4c-8.7-1.1-17.4-0.5-26.1,2
						c-8.7,2.4-17,5.7-25.1,9.9c-8,4.1-15.4,8.4-22.3,12.8c-0.6,0.2-1.1,0.5-1.5,0.9c-0.5,0.3-1,0.6-1.7,0.8c1.2,1,2.2,2,2.9,2.9
						c3.9,4.6,5.5,8.8,4.6,12.8c-0.8,3.9-2.9,7.5-6.4,10.7c-3.4,3.2-7,6.2-10.8,9c-14.2,9.9-30.2,16.7-47.7,20.4
						c-2.8,0.5-5.7-0.5-8.6-2.9c-2.8-2.4-4.2-5-4.2-7.7c0-5.3,1.2-9.9,3.7-14c2.5-4,5.6-7.7,9.3-11.1c3.7-3.3,7.4-6.5,11.2-9.6
						c2.1-1.7,4.3-3.3,6.6-5c2.3-1.6,4.4-3.2,6.5-4.9c-6.2-1.4-12.6-2.9-19-4.4C5,70.5-1.4,69-7.7,67.5c-7.4-1.8-15.4-3.8-23.9-6.1
						c-8.5-2.3-16.6-5.2-24.4-8.8c-7.8-3.7-14.5-8.4-20.2-14.1c-5.6-5.7-9.1-12.8-10.6-21.3C-88.3,8-86.7-0.3-82-8
						c4.7-7.7,10.2-14.5,16.5-20.4c6.8-6.5,14.2-12.6,22-18.3c7.8-5.6,15.9-10.8,24.3-15.6c17.4-9.6,35.8-17.1,54.9-22.4
						c5.5-1.4,11.6-2.9,18.2-4.5c6.7-1.6,13.3-2.7,19.9-3c6.7-0.4,12.9,0.3,18.6,2.1c7.4,2.6,13.4,7.1,18,13.5
						c4.6,6.4,7.4,13.3,8.4,20.5c0.8,6.3,0.1,12.4-2,18.1c-2.1,5.7-4.8,11.2-8.4,16.4s-7.2,10.2-11,14.9c-0.9,1.4-2.4,1.9-4.2,1.2
						c-1.9-0.7-3.7-1.8-5.4-3.4c-1.7-1.6-3-3.4-3.9-5.3c-0.8-1.9-0.6-3.6,0.5-5.1c2.7-3.4,5.5-7.3,8.5-11.6
						c3.1-4.3,5.7-8.7,7.9-13.4c2.2-4.7,3.4-9.5,3.7-14.2c0.3-4.7-0.9-9.3-3.8-13.7c-1.9-2.9-4.7-4.6-8.3-5.2
						c-3.6-0.7-7.4-0.7-11.3,0c-3.9,0.6-7.3,1.1-10.4,1.5c-9.5,1.6-18.9,3.8-28.2,6.5C25.2-64.4,8.6-57.5-7.2-48.7
						c-15.7,8.8-30.1,19.2-43.1,31.2c-3.8,3.5-7.7,7.6-11.8,12.4c-4.1,4.8-7.2,10-9.2,15.5c-2,5.4-1.7,11,0.7,16.6
						c1.7,4,4.5,7.3,8.4,9.9c3.9,2.7,8.2,4.8,12.7,6.4c4.5,1.6,8.8,3,12.9,4.3c9.3,2.6,18.7,4.9,28.3,7c9.6,2.1,19,4.2,28.3,6.3
						c4,1,8.1,1.9,12.4,2.7c4.2,0.8,8.5,1.7,12.7,2.8c1.2-0.9,2.6-1.7,4-2.6c1.5-0.8,2.9-1.7,4.2-2.6c7.5-4.5,15.6-9,24.3-13.5
						c8.6-4.6,17.6-8.2,26.9-10.7c9.3-2.5,18.6-3.3,27.9-2.1C137.1,35.4,140.5,37.8,142.6,42.2z M53.7,87.4c1.7-1.7,2.7-2.8,2.8-3.4
						c0.2-0.5-0.7-1.1-2.8-1.8c-7.2,4.9-14.1,9.9-20.7,15c-2.7,1.9-5.6,4.1-8.7,6.4c-3.1,2.4-5.9,5-8.4,7.7c7.1-2.7,13.7-6.1,20-10
						C42.3,97.3,48.2,92.7,53.7,87.4z"/>
				</g>
			</g>
		</g>
		<g>
			<g transform="translate(118.373898, 92.272787)">
				<g>
					<path class="st4" d="M249-29.5c1.7,0.9,3.4,2.3,5.2,4.3c1.8,1.9,2.6,3.8,2.5,5.8c-0.2,2-1,3.2-2.6,3.5c-1.5,0.2-3.1-0.1-4.8-1
						c-7.4-3.6-15.2-6-23.3-7.3c-8.2-1.3-16.3-2.2-24.4-2.7c-16.2-0.9-32.4-1.3-48.7-1.1c-0.2,0-0.4,0-0.6,0c-0.2,0-0.2,0-0.2,0
						c-8.4,17.6-16.1,35.5-23,53.7c-6.9,18.1-12.4,36.5-16.5,55.2c-4.1,18.7-5.9,37.8-5.5,57.4c0,2.2-0.7,3.3-2.2,3.5
						c-1.5,0.1-3.2-0.4-5.2-1.6c-2-1.1-3.8-2.6-5.3-4.3c-1.6-1.7-2.4-3.4-2.4-5.1c-0.5-27.5,3.2-54.5,11.2-80.8
						c7.9-26.4,17.6-52.2,29-77.2c-27.4,1.5-54.4,4.7-81.1,9.6c-1.7,0.4-3.6-0.1-5.5-1.4c-2-1.3-3.8-2.8-5.2-4.6
						c-1.4-1.8-2.2-3.5-2.4-5.2c-0.2-1.6,0.5-2.7,2.2-3c16.3-2.9,32.7-5.2,49.3-7c16.5-1.9,33.1-3,49.8-3.3c3.1-6.4,6.1-12.7,9.1-19
						c3.1-6.2,6.2-12.5,9.4-18.7c0.8-1.6,2.1-2.2,4-1.9c1.9,0.2,3.8,1.1,5.7,2.6c1.9,1.4,3.3,3,4.4,4.9c1.1,1.8,1.2,3.4,0.5,4.9
						c-2.3,4.6-4.5,9.1-6.7,13.5c-2.2,4.5-4.4,8.9-6.6,13.2c10,0,20.2,0.2,30.8,0.6c10.5,0.3,20.9,1.4,31,3.4
						C230.8-37,240.3-33.9,249-29.5z"/>
				</g>
			</g>
		</g>
		<g>
			<g transform="translate(124.183264, 92.272787)">
				<g>
					<path class="st4" d="M245.4,40.5c1.7-1.6,3.6-1.9,5.7-1c2.1,0.9,3.6,2.4,4.5,4.4c0.9,2,0.5,3.8-0.9,5.4
						c-5.7,5.6-11.6,11.3-17.4,16.8c-5.9,5.5-12.1,10.3-18.7,14.5c-3.2,2.2-6.6,3.8-10,4.9c-3.4,1.1-6.9,0.6-10.5-1.6
						c-3.8-2.2-6.3-5.1-7.5-8.6c-1.2-3.5-1.5-7.3-0.9-11.3c0-0.1,0-0.3,0-0.5c0-0.2,0.1-0.5,0.2-0.7c-4.6,4-9.2,7.8-13.9,11.5
						c-4.7,3.6-9.8,6.9-15.1,9.8c-4.7,2.7-9.5,4.3-14.4,4.7c-4.9,0.5-9.2-1.8-13-6.7c-3.2-4.2-4.4-9.2-3.4-15
						c0.9-5.8,3-11.4,6.1-16.8c3.2-5.5,6.2-10,9.3-13.4c1.1-1.3,2.6-1.6,4.6-0.9c2,0.6,3.9,1.7,5.5,3.4c1.7,1.6,3,3.4,3.8,5.3
						c0.8,1.9,0.6,3.5-0.6,4.7c-2.1,2.3-3.9,4.8-5.4,7.5c-1.5,2.7-2.8,5.4-4,8.1c-1.4,2.7-2.3,5.1-2.8,7c2.3-1,4.5-2.3,6.7-3.8
						c2.2-1.6,4.3-3.1,6.4-4.5c7.1-5.2,13.7-10.8,20-16.5c6.4-5.7,12.8-11.4,19.2-17c1.9-1.6,4.1-1.8,6.5-0.5
						c2.4,1.4,4.3,3.2,5.9,5.6c1.7,2.3,2.2,4.4,1.7,6.2c-1.2,4-2.4,8-3.7,12c-1.2,4-2.2,8-3.2,12.1c-0.2,0.7-0.4,1.5-0.6,2.4
						c4-0.9,8.5-3,13.7-6.2c5.1-3.3,10-6.9,14.7-11C238.6,46.9,242.4,43.4,245.4,40.5z"/>
				</g>
			</g>
		</g>
		<g>
			<g transform="translate(138.178426, 92.272787)">
				<g>
					<path class="st4" d="M349.9-80.8c2.4,0.8,4.7,2.3,7,4.7c2.2,2.3,3.1,4.5,2.7,6.4c0,0.4-0.1,0.8-0.2,1.1
						c-14.6,27.4-28.8,55-42.4,82.8c-13.7,27.7-25.8,56.1-36.2,85.1c-0.6,1.8-1.7,2.5-3.5,2.3c-1.8-0.2-3.7-1-5.5-2.4
						c-1.9-1.4-3.4-3-4.6-5c-1.1-1.9-1.4-3.7-0.8-5.3c2.1-5.8,4.2-11.6,6.4-17.5c2.2-5.9,4.5-11.7,7.1-17.4
						c-7.3,7.3-15.1,14-23.6,20c-8.4,5.9-17.9,10.7-28.3,14.3c-1.9,0.7-3.9,0.5-6-0.9c-2.2-1.4-3.9-3.1-5.2-5.3
						c-1.2-2.2-1.7-4.2-1.3-6c1.9-8.2,5.1-16.1,9.7-23.8c4.6-7.7,10.3-14.2,17.3-19.3c5-3.6,10.3-5.2,15.9-5
						c5.7,0.2,10.7,2.1,14.9,5.8c1.2-1.2,2.2-2.4,3.2-3.5c13.7-16.7,26-34.3,37-52.9c11-18.7,21.4-37.4,31.2-56.3
						c0.1-0.1,0.2-0.3,0.2-0.6c0.8-1,1.9-1.6,3.4-1.6C348.7-81,349.3-80.9,349.9-80.8z M238.4,65.3c5.1-3.1,9.9-6.6,14.5-10.5
						c4.5-3.9,8.9-8,13.1-12.4c-0.4-0.1-0.7-0.2-0.8-0.2c-0.6,0-1.2,0.1-1.8,0.1c-0.6,0.1-1.1,0.2-1.7,0.5c-1.6,0.4-3.1,1-4.5,1.9
						c-1.4,0.9-2.7,1.8-3.8,2.7c-2,1.6-3.8,3.3-5.5,5.2c-1.7,1.8-3.2,3.6-4.7,5.4C241.5,60.3,239.8,62.8,238.4,65.3z"/>
				</g>
			</g>
		</g>
		<g>
			<g transform="translate(150.928746, 92.272787)">
				<g>
					<path class="st4" d="M374.4,41.4c1.7-1.5,3.7-1.8,5.8-1c2.2,0.8,3.8,2.2,4.7,4.2c1,1.9,0.6,3.6-1.1,5
						c-4.6,3.6-9.3,7.2-14.1,10.8c-4.8,3.6-9.7,6.9-14.6,10.2c-4.2,2.6-8.5,5.2-13.1,7.9c-4.6,2.7-9.2,4.6-13.9,5.8
						c-3.9,0.5-7.4-0.1-10.7-1.7c-3.3-1.7-6-4-8-7c-2.1-2.9-3.2-6.2-3.2-9.8c-0.2-6,1.5-12.2,5.1-18.7c3.6-6.5,7-12.2,10-17.3
						c1.1-1.6,2.6-2.3,4.5-1.9c1.9,0.4,3.9,1.3,5.8,2.7c1.9,1.4,3.3,3.1,4.2,5c0.9,1.8,1,3.4,0.2,4.6c-2.4,4-4.7,8-6.8,12.1
						c-2.1,4.1-3.9,8.2-5.7,12.4c-0.4,1.1-0.9,2.2-1.4,3.5c4-0.5,9.2-2.2,15.7-5.1c6.4-2.9,13-6.4,19.7-10.3
						C364.2,48.8,369.8,45,374.4,41.4z M348.8,13c-1.1,2.2-3.1,2.8-5.9,1.7c-2.8-1.1-5.2-2.9-7.3-5.4c-2.1-2.5-2.6-4.7-1.7-6.7
						c1.7-3.3,2.9-5.7,3.7-7.2c0.8-1.6,1.2-2.4,1.2-2.4c1.2-1.6,2.7-2.2,4.6-1.9c1.9,0.2,3.7,1.1,5.5,2.6c1.8,1.4,3.2,3,4.2,4.9
						c1.1,1.8,1.2,3.4,0.5,4.9c0,0-0.3,0.6-0.8,1.8C352.3,6.4,350.9,9,348.8,13z"/>
				</g>
			</g>
		</g>
		<g>
			<g transform="translate(158.926014, 92.272787)">
				<g>
					<path class="st4" d="M406.2,39.1c0.8,7.1,0.1,14.1-1.9,20.9c-2,6.9-5.2,13-9.8,18.4c-4.2,5.2-9.3,8.6-15.2,10.2
						c-6,1.6-11.6-0.5-16.9-6.1c-4.8-5.1-6.8-10.6-6-16.6c0.8-6,3.3-11.8,7.4-17.4c4.2-5.6,9-10.7,14.5-15.1
						c5.5-4.5,10.5-7.8,15.1-10c1.9-0.9,4-0.5,6.4,1.1c2.4,1.7,4.2,3.7,5.5,6.2c1.3,2.4,1.3,4.3,0,5.8
						C405.8,37.3,406.1,38.2,406.2,39.1z M386.9,57.4c1.7-3.6,3-7.4,3.8-11.4c-2.9,2.3-5.5,4.9-7.8,7.6c-2.8,3.5-5.2,7.2-7.1,11.2
						c-0.6,0.9-1,1.8-1.4,2.7c-0.4,0.9-0.8,1.9-1.2,2.8c0,0.2-0.1,0.6-0.1,1.4c-0.1,0.7-0.2,1.3-0.4,1.9c1.1-1,2.2-1.7,3.2-2.4
						c1.1-0.6,2.1-1.4,3.1-2.4C382.2,65.4,384.8,61.6,386.9,57.4z"/>
				</g>
			</g>
		</g>
	</g>
</g>
<rect x="-2.3" class="st12" width="1280" height="660.7"/>
</svg>
